<?xml version="1.0" standalone="no"?>
<!DOCTYPE svg PUBLIC "-//W3C//DTD SVG 20010904//EN"
 "http://www.w3.org/TR/2001/REC-SVG-20010904/DTD/svg10.dtd">
<svg version="1.0" xmlns="http://www.w3.org/2000/svg"
 width="1070.000000pt" height="1070.000000pt" viewBox="0 0 1070.000000 1070.000000"
 preserveAspectRatio="xMidYMid meet">
<metadata>
Created by potrace 1.14, written by Peter Selinger 2001-2017
</metadata>
<g transform="translate(0.000000,1070.000000) scale(0.100000,-0.100000)"
fill="#000000" stroke="none">
<path d="M5980 10500 c0 -5 17 -11 38 -11 60 -3 66 -4 77 -10 6 -4 26 -9 45
-13 26 -4 19 0 -25 19 -61 25 -135 33 -135 15z"/>
<path d="M5458 10413 c-51 -18 -118 -37 -148 -43 -167 -35 -206 -44 -217 -52
-7 -6 -18 -6 -24 -2 -8 5 -9 3 -4 -6 6 -10 4 -12 -9 -7 -18 7 -39 -8 -44 -31
-1 -6 8 -12 20 -13 22 0 22 -1 3 -8 -11 -4 -65 -16 -120 -26 -65 -12 -104 -24
-112 -35 -7 -9 -32 -25 -57 -34 -26 -10 -46 -22 -46 -27 0 -5 -10 -9 -22 -9
-12 0 -40 -11 -62 -24 -23 -13 -88 -33 -146 -46 -58 -12 -109 -25 -115 -29 -5
-4 -20 -8 -32 -9 -11 0 -40 -13 -64 -29 -188 -125 -268 -156 -544 -213 -121
-25 -260 -61 -265 -69 -3 -5 -21 -16 -40 -26 -19 -10 -37 -21 -40 -26 -9 -13
-71 -52 -125 -79 -27 -14 -51 -28 -53 -32 -2 -5 -8 -8 -14 -8 -5 0 -27 -17
-49 -38 -21 -21 -70 -61 -109 -88 -38 -27 -72 -57 -75 -67 -8 -22 20 -67 41
-67 9 0 12 -5 8 -11 -4 -7 -1 -10 7 -7 8 3 13 11 11 17 -1 7 2 10 8 6 6 -4 18
-1 26 6 12 10 12 14 2 22 -9 6 -8 7 5 3 25 -8 44 4 26 15 -11 7 -11 9 2 9 9 0
29 7 45 15 15 8 30 12 33 10 2 -3 -38 -45 -90 -94 -52 -48 -128 -123 -169
-166 -41 -44 -132 -135 -201 -204 -88 -89 -145 -156 -191 -226 -63 -97 -97
-157 -99 -172 -1 -5 -10 -20 -21 -36 l-20 -28 -33 21 c-33 20 -61 25 -89 14
-12 -5 -15 -14 -10 -39 5 -27 1 -36 -26 -59 -36 -29 -54 -30 -56 0 -1 10 -2
22 -3 27 -3 16 -63 -50 -92 -100 -17 -29 -52 -77 -79 -106 -27 -30 -59 -72
-72 -95 -13 -22 -44 -71 -69 -109 -65 -97 -161 -280 -151 -287 11 -6 37 28 82
109 80 143 200 311 200 280 0 -14 -122 -199 -137 -208 -7 -4 -13 -14 -13 -22
0 -7 -20 -40 -45 -73 -30 -40 -45 -70 -45 -90 0 -19 -19 -58 -53 -110 -59 -89
-68 -108 -127 -272 -22 -63 -55 -144 -72 -180 -50 -104 -58 -123 -65 -160 -3
-19 -12 -44 -18 -55 -7 -11 -18 -38 -25 -60 -7 -22 -16 -44 -21 -49 -5 -6 -9
-17 -9 -25 0 -9 -6 -27 -13 -41 -8 -14 -17 -41 -20 -60 -4 -18 -14 -41 -22
-50 -10 -11 -17 -44 -20 -86 -2 -38 -9 -83 -15 -99 -10 -25 -18 -108 -21 -227
-1 -16 -6 -25 -11 -22 -7 4 -9 -10 -6 -40 3 -25 1 -46 -4 -46 -5 0 -8 -6 -7
-12 1 -7 -1 -22 -5 -33 -5 -11 -10 -27 -13 -35 -4 -12 -7 -11 -13 5 -7 17 -9
17 -9 3 -1 -10 -7 -18 -13 -18 -9 0 -10 -2 -2 -8 15 -9 12 -53 -4 -71 -10 -10
-10 -16 -1 -27 7 -8 9 -18 5 -22 -4 -4 -13 0 -20 8 -11 14 -50 40 -61 40 -3 0
-5 -4 -5 -10 0 -5 6 -10 13 -10 29 0 50 -26 43 -54 -4 -15 -11 -24 -15 -21 -5
3 -7 -3 -4 -14 3 -10 0 -22 -6 -25 -5 -4 -7 -14 -4 -22 3 -9 6 -36 7 -62 1
-41 5 -48 29 -60 27 -13 28 -17 23 -56 -3 -22 -7 -60 -9 -82 -1 -23 -8 -48
-15 -57 -7 -8 -9 -18 -4 -21 5 -3 7 -19 4 -37 -3 -19 0 -34 9 -39 10 -7 11
-20 2 -67 -18 -94 -37 -133 -67 -133 -15 0 -26 -4 -26 -8 0 -5 -19 -19 -43
-32 -47 -27 -107 -82 -107 -100 0 -16 26 -40 35 -32 5 4 5 2 1 -5 -4 -7 -14
-9 -23 -6 -9 4 -14 2 -10 -3 3 -5 -6 -14 -19 -21 -22 -10 -24 -9 -24 14 l0 24
-26 -20 c-14 -11 -34 -32 -46 -46 l-20 -26 27 -29 c30 -31 55 -30 55 2 0 14 5
18 15 14 8 -3 20 1 27 8 8 7 20 15 28 19 12 4 11 6 -2 6 -22 1 -23 14 -3 31
12 10 16 8 24 -11 8 -19 10 -20 12 -6 1 9 3 22 4 27 1 6 3 14 4 19 0 6 10 8
21 6 11 -2 18 0 16 4 -3 4 4 15 14 24 11 9 22 12 25 7 3 -4 0 -10 -7 -12 -6
-2 -12 -14 -13 -26 -2 -25 10 -29 19 -7 3 8 11 15 18 15 9 0 9 -3 -2 -10 -8
-5 -11 -12 -7 -16 4 -4 -1 -13 -11 -20 -16 -13 -15 -15 8 -34 14 -11 20 -20
13 -20 -8 0 -4 -17 12 -47 16 -29 22 -50 16 -56 -13 -13 9 -46 26 -40 9 4 16
-3 20 -16 3 -13 16 -27 29 -32 14 -5 24 -17 24 -29 0 -14 7 -20 23 -20 16 0
26 -9 34 -31 10 -25 16 -30 30 -24 10 4 25 7 33 6 8 -1 50 -4 93 -6 61 -2 80
0 84 11 5 13 8 13 22 0 16 -14 34 -20 57 -17 6 0 15 16 18 34 l7 32 18 -22
c10 -12 22 -19 26 -15 4 4 6 -5 3 -20 -3 -15 -1 -26 4 -25 6 1 14 -9 19 -22 8
-21 7 -22 -6 -11 -13 11 -15 8 -15 -19 0 -17 -4 -31 -10 -31 -5 0 -10 -8 -10
-17 0 -12 3 -14 8 -7 5 9 11 8 20 -2 11 -12 10 -14 -3 -14 -12 0 -15 -6 -10
-21 5 -15 4 -19 -4 -15 -6 4 -11 2 -11 -3 0 -13 13 -14 24 -4 4 4 17 8 29 8
13 0 22 6 22 15 0 8 -7 14 -15 12 -13 -2 -13 -1 0 10 17 14 21 78 5 78 -5 0
-3 5 5 10 8 5 15 20 15 32 0 14 7 24 17 26 14 3 18 -3 18 -25 0 -32 9 -48 28
-49 28 -2 32 -5 32 -21 0 -15 2 -16 10 -3 5 8 10 11 10 6 0 -5 6 -3 14 3 27
23 88 -21 70 -50 -3 -5 -3 -23 1 -39 6 -29 8 -30 48 -24 23 4 47 13 54 21 10
13 13 12 18 -10 6 -24 9 -25 29 -12 11 8 39 15 62 17 37 3 40 6 42 32 3 40 6
41 51 28 21 -7 54 -12 72 -12 41 0 88 28 68 40 -7 5 -13 24 -13 43 -1 20 -5
35 -10 34 -5 -1 -11 4 -13 11 -3 7 1 10 11 6 8 -3 30 6 49 20 28 21 36 24 49
13 20 -15 35 -127 18 -127 -7 0 -9 -8 -5 -21 5 -15 4 -19 -4 -15 -7 5 -11 -3
-11 -23 0 -16 -3 -37 -7 -47 -5 -13 -3 -15 8 -9 11 6 12 5 2 -6 -7 -7 -13 -23
-13 -35 0 -13 -5 -26 -11 -30 -6 -3 -9 -15 -6 -25 3 -10 1 -22 -5 -25 -5 -3
-7 -12 -4 -19 3 -8 0 -15 -5 -17 -5 -2 -11 -14 -13 -28 -5 -38 -17 -70 -27
-70 -4 0 -6 -10 -3 -23 5 -24 -13 -65 -34 -83 -22 -16 10 -39 36 -25 11 6 21
9 23 6 2 -2 3 17 2 42 -1 26 -7 49 -13 53 -8 5 -6 9 5 14 9 3 21 4 26 0 5 -3
10 9 11 25 2 53 3 56 16 70 7 7 22 11 33 8 32 -8 46 17 52 95 5 61 4 75 -10
85 -13 10 -15 23 -10 64 7 58 12 68 29 51 8 -8 8 -15 0 -25 -6 -7 -8 -23 -5
-36 3 -12 9 -19 12 -14 3 5 19 14 34 21 23 10 28 18 26 40 -2 15 0 32 4 38 13
21 -23 24 -44 3 -37 -37 -52 6 -25 72 7 19 17 49 21 68 6 29 5 33 -9 28 -20
-8 -30 10 -28 48 3 40 -24 98 -51 110 -19 9 -22 17 -21 73 1 56 -3 66 -26 64
-13 -1 -13 237 -1 298 18 90 24 174 16 244 -6 62 -10 69 -58 118 -55 57 -57
67 -30 146 8 24 15 61 15 83 0 21 5 39 10 39 5 0 7 4 4 9 -7 11 8 148 27 248
18 94 110 283 138 283 19 0 27 24 10 34 -4 3 2 36 14 73 13 38 31 104 39 148
9 44 18 89 21 100 2 11 7 37 10 58 7 42 38 77 69 77 16 0 18 2 7 9 -11 7 -9
10 9 16 18 6 27 1 45 -21 13 -16 21 -33 17 -38 -3 -5 6 -1 20 10 14 10 30 30
37 44 16 38 106 141 96 111 -5 -17 -4 -21 5 -16 15 9 -2 -26 -23 -47 -7 -7
-22 -26 -34 -43 -17 -24 -18 -32 -8 -42 10 -10 14 -9 19 3 3 9 4 19 1 24 -3 4
4 6 15 3 13 -3 34 5 57 23 24 18 38 24 41 16 2 -7 9 -9 15 -5 7 3 4 -3 -5 -14
-25 -27 -22 -42 8 -49 18 -5 22 -10 15 -17 -6 -6 -11 -14 -11 -18 0 -9 53 -19
64 -11 6 3 24 7 41 9 35 3 69 39 111 116 15 29 34 57 42 63 11 8 12 15 4 30
-7 13 -7 25 -1 35 5 7 14 31 19 52 6 21 17 37 25 37 8 0 15 6 15 14 0 8 10 16
23 18 13 2 21 9 19 18 -2 8 0 12 4 7 4 -4 16 0 26 10 20 18 25 38 7 27 -7 -4
-10 -1 -7 6 2 7 12 14 22 16 10 1 23 7 29 13 6 6 17 11 25 11 11 0 12 -3 3
-14 -8 -9 -8 -15 -2 -18 7 -2 5 -22 -4 -58 -18 -68 -18 -73 -1 -67 7 3 19 0
25 -6 8 -8 16 -4 31 13 24 28 24 29 3 47 -17 13 -16 14 4 8 17 -5 22 -3 17 8
-3 8 1 17 9 20 12 4 14 -4 12 -41 -1 -26 -6 -56 -9 -67 -8 -20 -7 -20 8 -1 11
13 16 15 16 6 0 -10 6 -8 23 6 28 26 101 74 110 74 18 0 104 46 118 64 9 11
24 42 35 69 12 31 33 60 57 79 20 17 52 51 69 76 30 43 52 46 29 4 -9 -16 -7
-21 11 -25 14 -4 19 -11 15 -21 -4 -9 -2 -16 3 -16 12 0 9 -22 -4 -31 -4 -4
-3 -10 3 -13 6 -4 11 -2 11 3 0 6 6 11 13 11 8 0 13 -10 13 -21 -1 -18 8 -24
49 -34 29 -8 51 -9 53 -4 2 5 10 9 17 9 14 0 64 27 121 65 25 17 28 23 18 33
-7 7 -11 19 -8 27 4 10 0 15 -12 16 -14 1 -12 3 6 8 18 5 28 18 38 51 7 25 18
52 25 60 16 20 99 60 123 60 11 0 30 7 42 16 12 8 36 19 52 24 33 10 37 1 20
-45 -7 -17 -7 -24 0 -20 15 9 12 -6 -3 -19 -16 -13 -50 -133 -42 -146 3 -5 1
-11 -5 -15 -7 -4 -7 -12 0 -25 7 -13 6 -20 -3 -23 -9 -4 -9 -8 -1 -14 6 -4 15
-24 19 -43 7 -30 9 -32 16 -15 6 17 8 17 8 3 1 -10 7 -18 14 -18 16 0 48 64
38 76 -4 5 6 22 21 38 24 24 28 26 28 10 0 -36 15 -47 40 -32 37 21 90 80 107
118 8 19 21 42 28 50 7 8 25 47 40 85 14 39 33 82 41 97 8 15 13 33 12 40 -2
7 7 14 19 16 13 2 32 15 42 29 l20 25 6 -29 c8 -40 29 -78 42 -78 6 0 15 -4
20 -9 5 -5 2 -6 -6 -1 -9 5 -12 3 -9 -6 3 -8 -1 -31 -9 -51 -13 -33 -13 -39 2
-62 16 -25 16 -26 -1 -27 -11 0 -14 -3 -6 -6 17 -7 44 17 38 34 -3 8 -2 12 3
8 15 -9 61 13 68 32 4 10 15 24 26 32 10 7 16 19 13 27 -3 7 -1 16 5 20 17 10
21 -3 9 -25 -9 -17 -8 -21 4 -21 10 0 13 -6 9 -17 -5 -12 -3 -14 7 -8 9 5 11
4 6 -3 -4 -7 -15 -12 -24 -12 -15 -1 -15 -2 1 -11 10 -6 24 -8 31 -6 7 3 13
-1 13 -9 0 -8 -7 -14 -16 -14 -14 -1 -14 -2 1 -11 14 -8 16 -19 12 -62 -3 -29
-8 -55 -11 -59 -2 -5 3 -8 11 -8 9 0 16 6 17 13 0 6 4 3 9 -8 8 -19 8 -19 18
5 9 21 11 22 11 5 1 -18 3 -17 18 5 9 14 24 30 33 37 13 10 9 12 -20 13 l-35
1 33 14 c35 16 62 11 62 -11 0 -17 16 -18 24 -1 4 6 4 2 2 -10 -2 -13 -1 -25
3 -28 8 -4 65 131 75 178 3 15 9 39 12 55 3 15 10 37 16 49 6 12 8 29 5 37 -3
8 1 39 10 68 l17 53 11 -122 c10 -112 14 -126 42 -165 17 -24 33 -52 36 -63 4
-17 5 -16 7 5 1 14 2 32 1 40 -1 9 1 11 6 5 13 -16 33 -16 33 0 0 9 8 19 18
22 9 4 20 11 24 17 4 6 8 -15 9 -46 2 -69 1 -67 17 -95 7 -13 19 -23 26 -23
14 0 31 28 27 44 -1 5 1 16 4 25 5 13 8 13 18 -6 16 -30 29 -32 33 -5 2 12 -1
22 -6 22 -6 0 -11 17 -11 38 -1 20 -3 29 -6 20 -7 -29 -33 -21 -33 10 0 21 2
24 10 12 6 -10 10 -11 10 -2 0 14 21 12 32 -3 4 -5 10 9 14 33 7 46 20 55 27
20 3 -17 5 -15 6 9 1 29 21 60 21 32 0 -8 4 -8 15 1 12 10 16 8 25 -15 16 -42
50 -86 62 -79 6 4 14 1 18 -6 6 -9 10 -7 15 9 3 11 11 21 16 21 6 0 16 15 24
33 13 29 14 14 15 -159 0 -151 3 -194 15 -210 8 -11 15 -14 15 -6 0 6 9 12 20
12 11 0 23 7 26 15 5 12 10 13 20 4 11 -9 14 -8 14 5 0 9 5 16 10 16 6 0 10
-8 10 -17 0 -14 6 -11 23 11 14 17 29 26 35 22 8 -5 12 1 13 16 1 18 2 19 6 5
3 -13 11 -17 24 -14 10 3 22 1 25 -4 10 -17 19 -9 36 30 10 22 26 42 38 46 14
5 20 15 20 38 1 29 2 31 14 14 14 -18 14 -18 19 0 3 10 5 -61 6 -158 1 -114 5
-179 12 -186 8 -8 19 -6 42 7 17 11 35 16 40 13 5 -3 13 1 18 8 7 12 12 12 29
1 18 -11 22 -9 32 13 6 14 16 25 22 24 25 -3 32 3 50 36 20 37 31 43 39 23 6
-14 62 45 73 75 3 11 12 16 20 13 8 -3 14 0 14 6 0 6 3 9 6 5 3 -3 15 3 27 14
28 26 33 24 47 -13 32 -86 27 -81 55 -61 13 10 25 21 25 26 0 4 5 7 11 7 6 0
23 8 37 19 15 10 39 21 54 25 41 10 60 56 66 159 3 49 8 83 12 76 4 -8 18 -68
29 -134 12 -66 29 -156 37 -199 7 -44 22 -95 31 -115 16 -32 22 -36 53 -34 19
1 36 6 38 12 8 23 20 9 41 -49 13 -36 27 -58 33 -54 6 4 28 8 49 9 47 4 59 11
59 34 0 10 7 24 16 32 20 16 44 63 44 85 0 10 8 26 17 36 16 18 18 13 50 -94
33 -113 105 -269 149 -321 13 -16 24 -34 24 -42 0 -7 13 -26 29 -41 16 -16 31
-40 33 -54 2 -21 8 -25 38 -25 32 0 35 -3 41 -35 3 -19 28 -138 54 -265 26
-126 51 -250 56 -275 5 -25 20 -89 34 -142 23 -86 24 -104 15 -161 -5 -36 -8
-93 -6 -128 16 -220 49 -549 65 -634 10 -55 15 -105 10 -110 -4 -6 -4 -17 1
-25 6 -8 10 -10 10 -5 0 6 9 -8 19 -30 10 -22 28 -49 40 -59 11 -11 21 -24 21
-31 0 -18 -61 -58 -89 -60 -16 0 -30 -9 -36 -22 -10 -24 -49 -35 -81 -23 -12
5 -26 4 -31 -1 -6 -6 -19 -6 -36 0 -18 7 -27 7 -27 0 0 -5 6 -12 14 -15 8 -3
13 -11 10 -17 -6 -17 14 -44 24 -32 5 7 18 7 41 -1 21 -7 29 -13 20 -16 -10
-4 -7 -12 14 -32 15 -14 33 -26 39 -26 7 0 6 -5 -2 -15 -6 -8 -9 -19 -6 -24 4
-5 2 -13 -4 -16 -8 -5 -7 -12 2 -23 7 -9 0 -6 -17 7 -16 12 -31 30 -32 39 -8
78 -7 77 -43 73 -12 -2 -12 0 -1 7 22 16 -2 20 -74 14 -16 -2 -20 -9 -20 -41
0 -22 3 -37 7 -35 9 6 38 -7 38 -17 0 -4 11 -20 25 -35 24 -25 27 -26 42 -12
15 15 18 15 44 -4 16 -12 26 -24 24 -28 -3 -4 8 -10 25 -12 21 -3 30 0 33 11
3 9 6 -2 7 -24 1 -22 4 -34 7 -27 2 6 9 12 14 12 6 0 7 -5 3 -11 -7 -12 12
-29 34 -29 9 0 11 7 7 20 -3 11 -2 20 3 20 6 0 13 23 17 51 6 42 10 50 25 46
12 -3 20 2 24 17 6 19 7 20 17 4 14 -24 35 -23 42 2 3 11 12 20 21 20 9 0 16
5 16 10 0 6 9 10 20 10 15 0 20 -7 20 -25 0 -22 3 -24 29 -19 29 6 78 -13 99
-39 12 -14 80 -9 160 13 17 4 32 5 32 1 0 -19 61 -41 101 -36 23 3 47 1 53 -5
34 -27 79 26 91 108 7 40 9 43 32 37 18 -4 29 0 44 17 32 36 61 108 64 153 1
23 6 48 11 56 4 8 10 23 11 33 6 35 42 106 54 106 7 0 9 3 6 7 -4 3 -2 13 5
20 27 33 15 253 -14 253 -5 0 -7 4 -4 9 3 5 0 11 -8 14 -7 3 -16 24 -20 46 -3
23 -11 41 -17 41 -5 0 -7 5 -4 10 3 6 2 10 -3 10 -20 0 1 40 24 46 13 3 24 13
24 21 0 8 8 13 18 11 12 -2 16 3 14 17 -2 12 0 16 5 9 8 -10 46 -34 56 -34 10
0 -2 92 -14 106 -6 8 -21 14 -32 14 -23 0 -70 47 -61 61 3 5 -1 9 -9 9 -23 0
-39 24 -25 38 7 7 9 13 5 13 -7 2 -22 5 -34 9 -5 1 -23 2 -42 3 -25 2 -36 8
-42 25 -7 19 -4 25 26 39 34 16 42 33 46 98 1 17 -2 38 -6 48 -4 9 -4 24 -1
32 3 9 -1 35 -9 58 -8 23 -15 50 -15 59 0 10 -10 23 -22 29 -44 23 -75 69 -47
69 8 0 7 5 -1 15 -10 12 -15 13 -20 4 -12 -19 -19 4 -24 77 l-5 69 12 -58 c7
-32 15 -55 19 -51 4 4 10 -1 14 -10 5 -14 34 -24 34 -12 0 17 -74 145 -81 140
-5 -3 -9 3 -9 13 0 10 -12 32 -27 48 -14 17 -35 40 -45 51 -11 12 -28 59 -39
104 -22 89 -17 146 17 212 14 26 15 50 9 137 -7 110 -26 226 -44 274 -6 15
-16 58 -21 94 -6 37 -22 88 -34 113 -46 88 -58 122 -52 146 4 14 3 30 -1 37
-4 6 -8 31 -10 56 -5 77 -82 228 -203 396 -39 54 -110 199 -110 224 0 6 -14
50 -31 98 -41 118 -67 205 -84 283 -7 36 -21 82 -29 102 -23 54 -21 57 30 46
36 -8 48 -7 55 3 4 7 4 18 -1 24 -5 6 -18 36 -30 67 -14 37 -27 58 -41 61 -11
3 -23 15 -26 26 -3 12 -10 21 -16 21 -6 0 -7 3 -4 7 8 7 -52 53 -70 53 -7 0
-13 3 -13 8 0 4 -25 36 -56 71 -36 42 -83 81 -137 113 -97 59 -124 71 -197 88
-69 16 -121 46 -113 66 3 8 -1 14 -11 14 -9 0 -16 6 -16 14 0 8 -10 17 -22 20
-13 3 -35 27 -51 52 -15 25 -37 48 -48 51 -11 3 -18 11 -15 18 8 22 -22 52
-57 59 -19 3 -54 16 -77 27 -24 12 -69 30 -99 40 -93 30 -164 65 -211 103 -25
20 -63 51 -85 69 -23 19 -70 41 -114 54 -42 13 -119 50 -180 86 -59 35 -118
67 -131 70 -14 4 -61 30 -105 59 -44 28 -88 51 -97 49 -9 -1 -47 12 -83 30
-48 23 -94 35 -168 45 -106 14 -233 18 -207 6 9 -4 32 -19 51 -35 34 -25 36
-31 37 -85 1 -46 -4 -64 -21 -84 l-22 -27 -138 10 c-76 6 -148 14 -160 19 -20
7 -17 10 27 29 63 28 119 40 179 41 40 0 47 3 47 20 0 11 6 20 13 20 6 1 -8
18 -31 40 -26 23 -41 44 -37 51 6 8 -40 10 -178 8 -150 -3 -182 -2 -164 8 12
7 30 12 40 13 9 0 17 5 17 11 0 21 -128 5 -222 -28z m-333 -138 c-16 -8 -37
-14 -45 -14 -8 0 -1 6 15 14 17 7 37 13 45 13 8 0 2 -6 -15 -13z m3225 -1165
c17 -19 30 -38 30 -42 0 -5 4 -7 8 -4 5 3 8 -16 8 -42 -1 -39 3 -48 22 -58 18
-9 20 -13 8 -17 -18 -7 -42 14 -51 43 -3 11 -12 20 -19 20 -25 0 -49 38 -44
70 3 22 1 30 -11 30 -14 0 -14 2 -2 9 12 8 13 15 3 38 -11 26 -11 27 3 7 8
-11 29 -36 45 -54z m-3013 -537 c-3 -10 -5 -4 -5 12 0 17 2 24 5 18 2 -7 2
-21 0 -30z m-2032 -233 c-3 -5 1 -10 10 -10 24 0 12 -24 -13 -28 -12 -2 -22
-1 -22 3 0 10 20 45 26 45 3 0 2 -4 -1 -10z m-175 -240 c0 -5 -2 -10 -4 -10
-3 0 -8 5 -11 10 -3 6 -1 10 4 10 6 0 11 -4 11 -10z m1890 -3 c0 -8 -7 -14
-15 -14 -11 0 -12 4 -4 14 6 7 13 13 15 13 2 0 4 -6 4 -13z m14 -84 c-5 -5
-12 -12 -16 -18 -4 -6 -8 -2 -8 8 0 9 7 17 17 17 9 0 12 -3 7 -7z m-40 -48
c-25 -19 -35 -19 -28 0 4 8 16 15 27 15 20 0 20 0 1 -15z m526 -153 c0 -15 -2
-15 -10 -2 -13 20 -13 33 0 25 6 -3 10 -14 10 -23z m-46 -18 c9 -3 16 -14 16
-23 0 -13 -2 -13 -9 -2 -10 16 -51 6 -51 -14 0 -18 -28 -27 -51 -15 -26 14
-24 21 5 16 15 -3 31 4 47 19 29 28 24 26 43 19z m-1510 -113 c3 -4 -3 -16
-14 -26 -19 -18 -20 -17 -20 8 0 26 22 38 34 18z m1376 -28 c0 -23 -25 -9 -26
15 -1 18 2 20 12 11 8 -6 14 -18 14 -26z m-1066 -32 c8 -12 -21 -34 -33 -27
-6 4 -8 13 -4 21 6 17 29 20 37 6z m-31 -85 c6 -16 -2 -28 -14 -20 -12 7 -11
34 0 34 5 0 11 -6 14 -14z m-1113 -103 c-25 -26 -46 -50 -47 -52 -2 -2 -5 -2
-8 1 -6 6 77 98 89 98 6 0 -10 -21 -34 -47z m445 5 c-6 -31 -25 -48 -25 -22 0
11 5 25 12 32 16 16 18 15 13 -10z m-264 -45 c-15 -28 -83 -104 -88 -100 -8 8
71 117 84 117 10 0 11 -5 4 -17z m252 -38 c0 -6 -7 -11 -16 -13 -12 -3 -15 1
-11 13 7 17 25 17 27 0z m-223 -30 c-7 -9 -15 -13 -18 -10 -3 2 1 11 8 20 7 9
15 13 18 10 3 -2 -1 -11 -8 -20z m-400 -148 c0 -2 -12 -14 -27 -28 l-28 -24
24 28 c23 25 31 32 31 24z m6217 -879 c-3 -8 -6 -5 -6 6 -1 11 2 17 5 13 3 -3
4 -12 1 -19z m0 -50 c-3 -8 -6 -5 -6 6 -1 11 2 17 5 13 3 -3 4 -12 1 -19z m10
-90 c-3 -8 -6 -5 -6 6 -1 11 2 17 5 13 3 -3 4 -12 1 -19z m28 -78 c3 -5 1 -10
-4 -10 -6 0 -11 5 -11 10 0 6 2 10 4 10 3 0 8 -4 11 -10z m-8185 -967 c0 -5
-5 -15 -10 -23 -8 -12 -10 -11 -10 8 0 12 5 22 10 22 6 0 10 -3 10 -7z m-78
-95 c-15 -15 -26 -4 -18 18 5 13 9 15 18 6 9 -9 9 -15 0 -24z m7624 7 c-3 -8
-1 -15 5 -15 6 0 8 -4 4 -10 -3 -5 -12 -7 -20 -3 -9 3 -15 -1 -15 -11 0 -9 -5
-16 -11 -16 -7 0 -6 8 3 23 8 12 18 28 22 35 10 17 19 15 12 -3z m-10 -117 c2
1 4 -1 3 -5 -1 -5 -5 -7 -9 -6 -15 4 -21 -35 -9 -56 10 -15 10 -23 0 -35 -7
-9 -17 -14 -21 -11 -5 3 -11 1 -15 -5 -10 -17 -24 -2 -18 20 3 11 9 18 13 15
5 -3 12 0 16 6 4 7 3 10 -2 6 -5 -3 -14 6 -21 19 -6 13 -7 24 -2 24 4 0 6 7 3
15 -4 8 -1 22 6 30 11 14 15 13 32 -2 11 -10 22 -17 24 -15z m-138 -35 c-4
-22 -22 -20 -26 1 -2 10 3 16 13 16 10 0 15 -7 13 -17z m12 -53 c0 -5 -4 -10
-10 -10 -5 0 -10 5 -10 10 0 6 5 10 10 10 6 0 10 -4 10 -10z m-27 -35 c-6 -17
-19 -19 -28 -5 -3 6 1 10 10 10 10 0 13 5 9 12 -4 7 -3 8 4 4 6 -4 9 -13 5
-21z m807 15 c0 -5 -2 -10 -4 -10 -3 0 -8 5 -11 10 -3 6 -1 10 4 10 6 0 11 -4
11 -10z m-644 -32 c-3 -13 -6 -29 -6 -36 0 -7 -5 -10 -10 -7 -6 4 -8 11 -5 16
4 5 2 9 -4 9 -5 0 -13 -4 -16 -10 -8 -13 -25 -13 -25 1 0 6 7 17 15 25 8 9 15
12 15 8 0 -5 5 -3 12 4 19 19 31 14 24 -10z m-416 3 c0 -5 -7 -11 -15 -15 -15
-5 -20 5 -8 17 9 10 23 9 23 -2z m-5730 -56 c0 -8 -2 -15 -4 -15 -2 0 -6 7
-10 15 -3 8 -1 15 4 15 6 0 10 -7 10 -15z m5915 -29 c0 -24 -4 -48 -9 -53 -5
-4 -7 4 -4 20 3 15 2 27 -1 27 -3 0 -6 11 -6 25 0 14 5 25 10 25 6 0 10 -20
10 -44z m-5895 -11 c0 -8 -2 -15 -4 -15 -2 0 -6 7 -10 15 -3 8 -1 15 4 15 6 0
10 -7 10 -15z m110 -175 c0 -5 -4 -10 -10 -10 -5 0 -10 5 -10 10 0 6 5 10 10
10 6 0 10 -4 10 -10z m-510 -39 c7 -24 6 -31 -5 -31 -9 0 -12 6 -8 16 3 9 0
20 -7 24 -7 4 -9 13 -5 20 9 15 14 10 25 -29z"/>
<path d="M6790 10246 c0 -9 5 -16 10 -16 6 0 10 4 10 9 0 6 -4 13 -10 16 -5 3
-10 -1 -10 -9z"/>
<path d="M6865 10160 c3 -5 11 -10 16 -10 6 0 7 5 4 10 -3 6 -11 10 -16 10 -6
0 -7 -4 -4 -10z"/>
<path d="M2884 9298 c-5 -7 -9 -26 -9 -43 0 -27 3 -30 30 -30 27 0 30 4 33 34
4 44 -32 70 -54 39z"/>
<path d="M9406 9154 c-11 -30 -6 -51 19 -74 24 -22 26 -23 42 -7 16 16 16 17
-9 17 -25 0 -38 16 -38 46 0 9 4 12 10 9 6 -3 7 1 4 9 -8 20 -20 20 -28 0z"/>
<path d="M8470 8902 c0 -4 9 -13 20 -20 16 -10 20 -10 20 2 0 8 -7 17 -16 20
-20 8 -24 8 -24 -2z"/>
<path d="M5910 7766 c0 -22 3 -27 11 -19 8 8 8 16 0 30 -9 16 -10 14 -11 -11z"/>
<path d="M6081 7774 c0 -11 3 -14 6 -6 3 7 2 16 -1 19 -3 4 -6 -2 -5 -13z"/>
<path d="M5935 7741 c-3 -5 -1 -12 5 -16 5 -3 10 1 10 9 0 18 -6 21 -15 7z"/>
<path d="M5427 7643 c-4 -3 -7 -13 -7 -21 0 -12 3 -12 15 -2 8 7 15 16 15 21
0 11 -14 12 -23 2z"/>
<path d="M5310 7557 c0 -16 24 -17 37 -1 4 5 4 6 -1 2 -5 -4 -15 -3 -23 3 -10
9 -13 8 -13 -4z"/>
<path d="M5300 7490 c0 -11 2 -20 4 -20 2 0 6 9 9 20 3 11 1 20 -4 20 -5 0 -9
-9 -9 -20z"/>
<path d="M3395 7320 c-3 -6 1 -7 9 -4 18 7 21 14 7 14 -6 0 -13 -4 -16 -10z"/>
<path d="M3447 7200 c-6 -22 0 -25 22 -11 7 5 10 14 7 20 -11 17 -23 13 -29
-9z"/>
<path d="M2530 6470 c0 -5 5 -10 11 -10 5 0 7 5 4 10 -3 6 -8 10 -11 10 -2 0
-4 -4 -4 -10z"/>
<path d="M6703 6425 c-57 -8 -111 -16 -120 -19 -10 -3 -40 -8 -68 -11 -27 -4
-63 -10 -80 -15 -16 -5 -57 -14 -90 -21 -68 -14 -65 -14 -85 -22 -24 -10 -158
-53 -239 -77 -82 -24 -103 -36 -172 -92 -26 -21 -53 -38 -60 -38 -8 0 -5 6 7
14 19 15 19 15 -2 13 -11 0 -26 -7 -32 -13 -9 -10 -7 -14 9 -19 14 -5 18 -10
11 -17 -6 -6 -17 -6 -31 1 -11 6 -33 9 -48 5 -26 -6 -82 -33 -93 -44 -3 -3
-17 -11 -32 -19 -27 -14 -29 -31 -4 -31 7 0 32 9 55 21 24 11 50 17 59 14 10
-4 31 -9 47 -11 17 -2 36 -6 43 -9 15 -6 16 -55 0 -55 -6 0 -9 -2 -7 -4 2 -3
38 6 79 20 78 25 120 25 120 -2 0 -10 6 -13 18 -10 9 3 60 17 112 30 52 14
122 34 154 45 33 12 69 21 82 21 13 0 25 4 29 10 3 5 12 7 21 3 8 -3 36 1 62
8 l47 14 -35 6 -35 6 27 11 c21 9 35 8 61 -3 19 -8 36 -12 39 -10 2 3 65 12
139 20 224 25 439 16 525 -21 40 -17 63 -27 99 -39 11 -4 39 -9 62 -11 23 -2
95 -19 159 -39 89 -28 125 -35 153 -30 86 17 104 14 196 -32 50 -25 92 -49 95
-53 8 -12 48 7 60 29 8 16 21 21 53 21 l43 0 0 55 c0 44 -4 56 -18 61 -10 3
-18 11 -18 17 0 7 -39 28 -87 46 -49 19 -126 54 -173 77 -47 23 -133 57 -192
75 -58 19 -106 38 -105 42 3 15 -116 47 -151 41 -18 -4 -38 -2 -45 4 -15 12
-66 20 -252 37 -177 18 -254 17 -392 0z m-295 -310 c-2 -1 -24 -6 -50 -9 -34
-5 -48 -4 -48 5 0 6 8 9 19 6 10 -2 24 -1 31 3 11 6 56 2 48 -5z"/>
<path d="M3469 6279 c-7 -4 -17 -5 -21 -2 -5 2 -20 -2 -33 -11 -27 -18 -49
-21 -40 -6 4 7 -6 10 -25 8 -18 -1 -36 -10 -41 -19 -5 -10 -22 -20 -39 -24
-16 -4 -32 -11 -35 -16 -4 -5 -15 -9 -27 -9 -11 0 -34 -6 -51 -14 -18 -7 -59
-22 -92 -31 -92 -27 -203 -96 -258 -159 -45 -53 -62 -81 -33 -57 11 9 14 3 14
-33 1 -36 -3 -47 -23 -60 -15 -10 -25 -12 -25 -5 0 6 -13 0 -29 -13 -15 -13
-27 -26 -25 -30 3 -3 -10 -17 -28 -29 -18 -12 -51 -38 -73 -58 -21 -20 -35
-29 -30 -21 6 9 0 5 -12 -9 -16 -18 -19 -29 -12 -42 5 -10 9 -36 9 -59 0 -31
6 -47 26 -65 15 -14 30 -25 35 -25 4 0 29 18 56 40 26 22 54 46 62 52 10 8 20
7 41 -6 37 -21 40 -20 40 8 0 15 14 35 40 57 22 19 59 51 83 72 40 36 340 190
396 204 14 3 31 9 36 13 6 5 42 11 80 15 39 4 84 11 100 16 17 5 117 11 223
13 107 3 199 9 205 14 21 16 373 -43 442 -74 17 -7 104 -38 195 -67 162 -53
269 -77 271 -60 4 46 33 143 42 143 4 0 6 4 3 8 -8 13 9 33 30 36 10 2 18 8
17 14 -2 6 11 24 27 41 17 16 30 33 30 36 0 4 -30 4 -66 0 -67 -7 -224 11
-224 26 0 4 -12 9 -27 12 -26 4 -275 70 -389 103 -28 7 -75 14 -105 14 -30 0
-81 4 -113 10 -33 5 -116 10 -185 10 -69 0 -133 0 -141 0 -35 0 -97 12 -125
25 -36 15 -158 26 -176 14z"/>
<path d="M2402 6215 c0 -16 2 -22 5 -12 2 9 2 23 0 30 -3 6 -5 -1 -5 -18z"/>
<path d="M5097 6033 c-15 -14 -6 -31 13 -26 11 3 20 12 20 19 0 14 -22 19 -33
7z"/>
<path d="M6202 5856 c-19 -7 -49 -29 -67 -49 -19 -20 -43 -37 -53 -37 -31 0
-52 -32 -52 -79 0 -26 -4 -40 -10 -36 -5 3 -10 19 -10 36 0 41 -20 37 -69 -16
-46 -50 -52 -82 -27 -153 17 -47 14 -52 -29 -52 -17 0 -35 -3 -38 -7 -12 -11
-105 -41 -111 -35 -3 3 -6 0 -6 -7 0 -8 -7 -11 -15 -7 -8 3 -15 2 -15 -2 0 -4
-10 -12 -22 -17 -27 -12 -30 -31 -10 -64 8 -13 9 -20 3 -17 -15 10 -14 -32 2
-49 6 -7 20 -22 30 -34 10 -12 22 -19 27 -16 8 5 21 -23 25 -55 1 -8 5 -22 7
-30 3 -8 11 -35 18 -60 16 -60 67 -127 103 -134 35 -7 31 -30 -6 -34 -15 -2
-32 -13 -39 -25 -6 -12 -14 -24 -19 -27 -4 -3 -11 -18 -14 -33 -7 -26 -4 -29
61 -58 153 -70 394 -105 647 -96 116 4 152 8 165 21 10 8 27 17 38 19 10 2 30
9 44 14 14 6 90 32 170 59 131 44 207 79 235 108 6 6 32 29 59 50 26 22 68 64
92 95 24 31 69 74 101 97 49 34 60 48 71 87 7 26 17 47 23 47 5 0 9 5 9 10 0
18 -18 11 -25 -10 -8 -26 -22 -26 -30 0 -4 11 -18 34 -32 50 l-25 30 54 58
c63 69 138 192 138 226 0 30 -27 41 -63 27 -23 -9 -26 -8 -29 17 -2 22 -9 28
-35 30 -21 2 -33 9 -33 18 0 21 -39 33 -74 23 -36 -11 -41 -7 -26 21 10 18 9
25 -4 38 -18 19 -63 10 -166 -33 -70 -29 -102 -52 -98 -69 2 -6 -14 -39 -35
-72 -27 -45 -38 -75 -40 -110 -2 -49 -2 -49 31 -52 17 -2 32 -6 32 -10 0 -18
80 1 101 24 12 13 17 24 11 24 -20 0 -14 18 18 52 19 22 30 28 30 17 0 -8 -4
-19 -8 -25 -8 -9 -26 -66 -36 -114 -7 -35 7 -54 34 -47 16 4 20 2 16 -8 -3 -8
3 -17 14 -20 11 -3 20 -17 22 -33 2 -19 13 -32 33 -42 27 -13 30 -19 28 -55
-4 -66 -13 -85 -40 -85 -17 0 -27 -7 -30 -21 -4 -14 -12 -19 -24 -16 -27 7
-37 -32 -13 -50 9 -7 14 -16 11 -20 -4 -3 -7 -3 -7 0 0 4 -9 -1 -19 -10 -29
-27 -43 -36 -73 -52 -16 -8 -28 -18 -28 -23 0 -9 -50 0 -63 12 -5 4 -25 4 -45
-1 -52 -12 -59 -11 -36 6 14 11 15 14 4 15 -13 0 -13 1 0 10 8 5 23 7 33 4 18
-6 24 11 7 21 -6 3 -7 17 -4 30 3 12 1 26 -5 29 -5 4 -8 13 -4 21 3 8 -1 15
-8 15 -7 0 -9 3 -6 7 4 3 2 12 -4 20 -9 10 -8 13 1 13 10 0 10 3 0 15 -7 8
-10 24 -7 35 3 11 1 20 -3 20 -5 0 -7 12 -4 26 4 20 0 27 -16 31 -26 7 -28 59
-2 66 13 4 12 5 -5 6 -25 1 -56 28 -48 42 9 14 25 11 25 -6 0 -19 30 -19 66 0
16 8 23 15 16 15 -7 0 -10 5 -7 10 4 6 1 17 -5 25 -23 27 -13 177 14 217 22
34 44 107 38 131 -4 20 -48 23 -87 5 -23 -10 -29 -8 -59 21 -29 28 -41 33 -92
34 -48 2 -71 -4 -126 -30 -37 -18 -69 -33 -71 -33 -3 0 -7 8 -10 19 -6 26 -52
35 -88 17 -16 -8 -54 -22 -84 -31 -30 -8 -55 -19 -55 -23 0 -4 -10 -18 -21
-32 -11 -14 -19 -19 -17 -10 1 8 -1 38 -5 67 -11 76 -42 95 -115 69z m-154
-266 c11 -45 1 -54 -16 -15 -14 31 -15 55 -3 55 5 0 13 -18 19 -40z m22 -60
c0 -5 -2 -10 -4 -10 -3 0 -8 5 -11 10 -3 6 -1 10 4 10 6 0 11 -4 11 -10z m180
-104 c0 -16 -15 -36 -27 -36 -12 0 -12 -3 2 -16 11 -12 13 -20 6 -27 -6 -6
-11 -19 -11 -29 0 -10 -6 -18 -13 -18 -14 0 -37 -61 -37 -97 0 -10 6 -25 13
-32 10 -11 10 -14 0 -18 -7 -3 -13 -13 -13 -24 0 -10 -5 -19 -11 -19 -6 0 -9
6 -6 13 3 7 -1 21 -9 32 -8 10 -10 23 -5 29 14 18 22 66 11 66 -13 0 -13 46 0
71 7 13 7 19 0 19 -5 0 -10 5 -10 10 0 6 7 10 16 10 21 0 42 22 36 39 -3 10 1
12 17 8 14 -3 21 0 21 9 0 8 5 14 10 14 6 0 10 -2 10 -4z m1097 -301 c0 -9 -5
-14 -11 -12 -6 2 -19 -7 -29 -20 -16 -20 -47 -32 -47 -18 0 12 41 49 56 51 9
1 18 5 22 8 8 9 9 8 9 -9z m-1321 -43 c5 -4 11 -17 12 -29 5 -54 7 -61 19 -56
9 4 11 0 6 -12 -5 -15 -2 -17 14 -13 17 5 20 2 15 -16 -3 -11 -10 -24 -16 -28
-6 -4 -7 -10 -3 -14 12 -12 36 17 49 57 6 22 17 39 25 39 7 0 16 7 19 15 5 13
9 13 32 0 15 -8 36 -23 48 -32 23 -21 38 -64 21 -60 -6 1 -11 -5 -12 -13 0 -8
-13 -17 -30 -20 -17 -4 -29 -12 -27 -19 1 -7 -3 -11 -10 -8 -7 2 -12 10 -10
16 2 10 -11 15 -30 12 -5 0 -8 6 -8 14 0 21 -5 19 -35 -11 -25 -25 -28 -25
-43 -10 -13 12 -13 19 -4 28 7 7 12 18 12 26 0 18 -50 8 -66 -14 -6 -7 -16
-14 -22 -14 -16 0 -8 67 11 88 10 11 14 27 10 40 -3 15 -1 22 8 22 11 0 11 2
-1 10 -8 5 -10 10 -5 10 6 0 15 -4 21 -8z m-68 -177 c-3 -3 -9 2 -12 12 -6 14
-5 15 5 6 7 -7 10 -15 7 -18z m1032 19 c0 -4 -52 -27 -88 -38 -13 -5 -22 -3
-22 3 0 6 6 11 14 11 8 0 16 6 19 13 4 11 77 22 77 11z m-410 -110 c0 -2 -24
-3 -52 -3 -43 1 -47 3 -23 8 28 6 75 3 75 -5z"/>
<path d="M3546 5757 c-25 -25 -32 -60 -41 -195 -5 -89 7 -122 46 -122 15 0 34
-6 41 -12 14 -14 48 -20 48 -9 0 4 -5 12 -11 18 -8 8 -5 17 10 32 12 12 18 21
14 21 -5 0 -8 64 -8 142 l0 143 -37 3 c-29 2 -43 -2 -62 -21z"/>
<path d="M3810 5773 c-28 -10 -81 -68 -111 -119 -23 -42 -29 -63 -29 -113 0
-46 4 -63 15 -67 22 -9 18 -22 -7 -26 -40 -5 -19 -23 22 -20 33 3 39 1 34 -12
-3 -9 -14 -16 -23 -16 -16 0 -78 -48 -134 -105 -32 -32 -55 -77 -72 -140 -10
-37 -9 -48 13 -115 9 -29 11 -60 2 -55 -12 7 -18 -49 -8 -76 5 -13 19 -34 31
-47 l22 -23 -26 9 c-15 6 -31 7 -40 1 -8 -5 -9 -9 -4 -10 6 0 -3 -5 -19 -9
-20 -6 -37 -5 -56 5 -15 8 -30 11 -34 8 -3 -4 -12 2 -20 12 -8 11 -15 14 -19
7 -19 -29 -87 30 -87 75 l0 24 -28 -19 c-42 -31 -86 -34 -102 -8 -18 27 -18
45 -3 78 15 32 17 88 3 88 -5 0 -9 8 -7 18 6 36 27 59 71 77 43 18 60 35 35
35 -19 0 -6 72 16 84 11 6 22 14 25 17 3 3 15 11 27 18 13 6 26 23 29 36 5 20
12 25 39 25 36 0 61 19 76 57 10 26 -4 183 -21 245 -12 43 -28 51 -70 36 -42
-14 -72 -75 -71 -145 0 -29 -2 -53 -5 -53 -3 0 -12 16 -20 35 -23 55 -65 47
-112 -21 -13 -19 -33 -34 -52 -38 -62 -12 -100 -79 -100 -177 0 -57 16 -105
38 -113 39 -15 72 -38 72 -52 0 -7 -5 -14 -10 -14 -16 0 -50 -62 -50 -91 0
-25 41 -75 52 -64 3 3 8 -1 11 -10 4 -8 2 -15 -3 -15 -14 0 -8 -52 7 -57 7 -3
11 -9 8 -13 -3 -5 7 -21 21 -35 24 -24 28 -25 36 -11 5 9 16 16 25 16 14 0 13
-4 -6 -24 -12 -13 -24 -39 -27 -58 l-6 -34 142 -28 c136 -26 156 -28 439 -27
243 0 304 2 340 15 24 9 75 16 114 16 85 0 141 15 187 50 19 14 61 43 92 64
32 21 72 51 89 67 18 16 45 39 60 50 42 30 36 40 -23 35 -76 -6 -90 -13 -121
-57 -16 -24 -32 -37 -39 -33 -7 4 -8 3 -4 -4 16 -26 -99 -45 -134 -22 -13 9
-13 12 3 24 9 7 17 18 17 24 0 6 5 12 12 14 14 5 3 38 -12 38 -6 0 -34 -24
-63 -54 -55 -58 -78 -68 -114 -48 -13 7 -23 10 -23 6 0 -3 -7 -1 -15 6 -19 16
-19 26 1 34 12 4 15 2 10 -9 -3 -8 -1 -15 4 -15 6 0 10 7 10 15 0 8 9 15 19
15 11 0 28 11 39 25 11 13 23 21 27 17 5 -4 5 1 2 11 -4 9 -2 17 2 17 12 0 53
79 46 90 -3 5 0 14 7 22 7 7 13 31 13 53 -1 24 6 48 16 60 14 16 15 23 5 36
-18 26 -77 46 -126 43 -33 -2 -40 0 -27 7 20 12 23 33 3 26 -8 -3 -22 1 -33 8
-10 8 -13 15 -6 15 7 0 10 6 7 14 -3 7 2 16 10 19 10 4 16 1 16 -7 0 -16 50
-28 66 -15 6 5 15 4 22 -3 17 -17 72 44 72 79 1 43 34 108 85 162 54 58 59 94
13 99 -77 9 -214 -132 -247 -253 l-10 -40 -48 3 c-91 6 -91 6 -55 25 17 10 32
22 32 27 0 29 47 127 81 171 94 118 0 146 -140 42 -37 -29 -91 -108 -91 -135
0 -10 -4 -18 -8 -18 -11 0 -3 -58 9 -66 19 -11 7 -21 -26 -19 -18 0 -36 3 -39
5 -8 9 10 133 30 203 14 50 16 72 8 85 -11 17 -65 26 -94 15z m53 -350 c-7 -2
-19 -2 -25 0 -7 3 -2 5 12 5 14 0 19 -2 13 -5z m-663 -92 c0 -23 -18 -10 -29
20 -15 44 -14 46 9 16 11 -14 20 -30 20 -36z m-70 -155 c0 -3 -4 -8 -10 -11
-5 -3 -10 -1 -10 4 0 6 5 11 10 11 6 0 10 -2 10 -4z m500 -236 c0 -5 -7 -10
-15 -10 -8 0 -15 5 -15 10 0 6 7 10 15 10 8 0 15 -4 15 -10z m15 -30 c-3 -5
-10 -10 -16 -10 -5 0 -9 5 -9 10 0 6 7 10 16 10 8 0 12 -4 9 -10z m-45 -49 c0
-12 -20 -25 -27 -18 -7 7 6 27 18 27 5 0 9 -4 9 -9z"/>
<path d="M7972 5695 c0 -16 2 -22 5 -12 2 9 2 23 0 30 -3 6 -5 -1 -5 -18z"/>
<path d="M4608 5687 c-15 -7 -57 -38 -93 -71 -62 -55 -107 -126 -138 -218 -8
-24 15 -39 54 -33 24 4 28 3 15 -3 -13 -6 -16 -11 -8 -16 18 -11 72 22 85 52
16 38 87 132 120 161 27 23 57 70 57 91 0 14 -38 50 -52 50 -7 -1 -25 -6 -40
-13z"/>
<path d="M806 5617 c3 -10 9 -15 12 -12 3 3 0 11 -7 18 -10 9 -11 8 -5 -6z"/>
<path d="M4768 5623 c-10 -2 -18 -9 -18 -14 0 -5 -6 -9 -12 -9 -16 -1 -88 -67
-117 -108 -15 -22 -21 -45 -21 -87 0 -48 4 -60 26 -80 30 -28 75 -33 93 -11
21 25 136 220 150 254 11 26 11 35 1 47 -12 14 -63 18 -102 8z"/>
<path d="M7960 5380 c0 -6 7 -10 15 -10 8 0 15 2 15 4 0 2 -7 6 -15 10 -8 3
-15 1 -15 -4z"/>
<path d="M1025 5360 c-3 -6 1 -7 9 -4 18 7 21 14 7 14 -6 0 -13 -4 -16 -10z"/>
<path d="M4230 5360 c0 -5 5 -10 10 -10 6 0 10 5 10 10 0 6 -4 10 -10 10 -5 0
-10 -4 -10 -10z"/>
<path d="M990 5330 c0 -5 5 -10 10 -10 6 0 10 5 10 10 0 6 -4 10 -10 10 -5 0
-10 -4 -10 -10z"/>
<path d="M4255 5329 c4 -6 9 -8 12 -5 3 3 14 -4 26 -15 11 -10 26 -19 31 -18
6 0 5 3 -1 6 -7 2 -13 11 -13 18 0 7 -10 15 -22 19 -33 8 -40 7 -33 -5z"/>
<path d="M4333 5317 c5 -15 37 -22 37 -9 0 5 -9 12 -21 15 -13 3 -19 1 -16 -6z"/>
<path d="M4439 5316 c5 -6 22 -13 36 -14 14 -1 34 -6 44 -12 19 -10 31 -4 31
13 0 6 -3 7 -7 4 -3 -4 -12 -2 -20 4 -7 6 -13 9 -13 7 0 -3 -18 -2 -40 2 -30
5 -38 4 -31 -4z"/>
<path d="M4388 5313 c7 -3 16 -2 19 1 4 3 -2 6 -13 5 -11 0 -14 -3 -6 -6z"/>
<path d="M7006 5301 c-3 -5 0 -14 8 -20 11 -9 15 -8 20 5 3 8 6 18 6 20 0 8
-29 4 -34 -5z"/>
<path d="M4570 5290 c0 -5 9 -14 20 -20 11 -6 20 -9 20 -8 0 2 -9 11 -20 21
-11 9 -20 13 -20 7z"/>
<path d="M4783 5281 c2 -12 9 -27 15 -33 9 -9 12 -7 12 9 0 11 -7 26 -15 33
-13 11 -15 9 -12 -9z"/>
<path d="M4670 5261 c0 -5 5 -13 10 -16 6 -3 10 -2 10 4 0 5 -4 13 -10 16 -5
3 -10 2 -10 -4z"/>
<path d="M7529 5119 c-15 -29 -1 -50 30 -43 18 4 22 3 12 -4 -10 -8 -8 -13 10
-26 16 -11 25 -12 30 -4 10 17 39 1 39 -21 0 -41 41 -36 65 8 8 14 14 20 15
12 0 -11 5 -10 20 4 11 10 20 22 20 26 0 11 -70 4 -79 -7 -7 -10 -52 -13 -48
-3 6 16 -32 36 -58 32 -22 -5 -26 -3 -19 8 15 24 12 35 -8 35 -11 0 -24 -8
-29 -17z"/>
<path d="M4795 5110 c-3 -5 -1 -10 4 -10 6 0 11 5 11 10 0 6 -2 10 -4 10 -3 0
-8 -4 -11 -10z"/>
<path d="M7955 5100 c-3 -5 -1 -10 4 -10 6 0 11 5 11 10 0 6 -2 10 -4 10 -3 0
-8 -4 -11 -10z"/>
<path d="M7460 5081 c0 -6 5 -13 10 -16 6 -3 10 1 10 9 0 9 -4 16 -10 16 -5 0
-10 -4 -10 -9z"/>
<path d="M7420 5050 c-8 -5 -11 -12 -7 -16 4 -4 13 -2 19 4 15 15 7 24 -12 12z"/>
<path d="M9535 5010 c-3 -5 -1 -10 5 -10 6 0 8 -4 5 -10 -3 -5 -1 -10 4 -10
13 0 14 27 2 35 -5 3 -12 1 -16 -5z"/>
<path d="M591 4937 c2 -11 -5 -31 -28 -87 -20 -49 13 -83 35 -36 6 14 24 32
40 40 24 13 51 46 40 50 -2 1 -22 11 -46 23 -26 13 -42 17 -41 10z m39 -31 c0
-3 -4 -8 -10 -11 -5 -3 -10 -1 -10 4 0 6 5 11 10 11 6 0 10 -2 10 -4z"/>
<path d="M744 4885 c-9 -22 1 -29 15 -11 8 10 9 16 1 21 -5 3 -13 -1 -16 -10z"/>
<path d="M2410 4890 c0 -5 5 -10 10 -10 6 0 10 5 10 10 0 6 -4 10 -10 10 -5 0
-10 -4 -10 -10z"/>
<path d="M7286 4893 c-11 -11 -7 -20 9 -20 8 0 15 4 15 8 0 11 -16 20 -24 12z"/>
<path d="M7213 4856 c2 -6 14 -11 27 -11 13 0 25 5 27 11 2 6 -10 11 -27 11
-17 0 -29 -5 -27 -11z"/>
<path d="M865 4850 c3 -5 10 -10 16 -10 5 0 9 5 9 10 0 6 -7 10 -16 10 -8 0
-12 -4 -9 -10z"/>
<path d="M7631 4844 c0 -11 3 -14 6 -6 3 7 2 16 -1 19 -3 4 -6 -2 -5 -13z"/>
<path d="M7925 4846 c-18 -13 -18 -14 6 -26 13 -7 27 -18 31 -24 11 -17 58 14
58 38 0 17 -7 21 -38 24 -21 1 -46 -4 -57 -12z"/>
<path d="M525 4810 c3 -5 8 -10 11 -10 2 0 4 5 4 10 0 6 -5 10 -11 10 -5 0 -7
-4 -4 -10z"/>
<path d="M2515 4790 c-3 -5 -1 -10 4 -10 6 0 11 5 11 10 0 6 -2 10 -4 10 -3 0
-8 -4 -11 -10z"/>
<path d="M876 4751 c-3 -5 1 -14 9 -21 11 -9 14 -8 12 9 -1 22 -12 28 -21 12z"/>
<path d="M7777 4753 c-15 -15 -6 -43 13 -43 11 0 20 3 20 8 -1 14 -27 42 -33
35z"/>
<path d="M8052 4675 c5 -22 3 -26 -13 -22 -11 3 -19 1 -19 -4 0 -5 7 -9 15 -9
8 0 15 -4 15 -10 0 -14 27 -13 36 1 3 6 2 14 -4 18 -6 3 -10 15 -9 25 1 10 -4
21 -12 24 -10 3 -13 -2 -9 -23z"/>
<path d="M1052 4683 c-10 -4 -10 -8 -1 -19 13 -16 49 -19 49 -4 0 13 -32 28
-48 23z"/>
<path d="M791 4670 c-8 -4 -12 -17 -8 -29 3 -12 2 -21 -3 -21 -4 0 -10 -10
-13 -22 -5 -19 -3 -18 21 8 17 18 23 30 15 32 -7 2 -13 7 -13 12 0 5 6 10 13
13 6 2 10 7 7 10 -3 3 -12 2 -19 -3z"/>
<path d="M8190 4620 c0 -5 5 -10 10 -10 6 0 10 5 10 10 0 6 -4 10 -10 10 -5 0
-10 -4 -10 -10z"/>
<path d="M594 4596 c-13 -15 -44 -97 -44 -119 0 -9 5 -17 10 -17 6 0 10 13 10
28 0 15 4 32 10 38 8 8 11 19 19 64 1 3 5 -2 11 -10 5 -8 12 -11 16 -8 3 4 0
13 -8 21 -10 10 -16 11 -24 3z"/>
<path d="M7777 4590 c-14 -12 -24 -27 -21 -34 3 -7 -12 -35 -34 -62 -21 -27
-41 -57 -45 -66 -3 -10 -13 -18 -22 -18 -8 0 -34 -17 -58 -38 -23 -21 -62 -47
-87 -57 -25 -11 -64 -33 -87 -49 -34 -24 -45 -27 -57 -17 -17 14 -32 -2 -20
-21 6 -10 4 -10 -8 0 -16 13 -48 7 -48 -9 0 -4 -7 -6 -15 -3 -9 4 -18 -2 -24
-18 -5 -13 -21 -30 -36 -38 -25 -13 -25 -15 -9 -27 16 -12 16 -13 1 -13 -19 0
-21 -8 -8 -28 6 -10 10 -10 20 2 6 8 24 17 39 21 42 10 167 72 181 89 8 9 22
16 32 16 10 0 21 5 24 11 4 6 13 8 21 5 8 -3 14 -1 14 5 0 6 7 8 16 5 8 -3 12
-2 9 4 -3 5 10 13 29 18 19 6 50 22 69 36 40 30 50 33 43 9 -6 -21 17 -55 36
-52 40 5 50 -11 23 -37 -22 -23 -18 -32 13 -28 15 2 21 1 14 -2 -6 -3 -9 -11
-5 -17 5 -7 8 -21 8 -31 0 -14 8 -20 28 -20 20 -1 27 3 27 16 0 10 5 18 10 18
10 0 14 -15 10 -35 -1 -5 2 -7 6 -3 4 4 13 3 21 -4 10 -8 17 -8 26 1 9 9 7 13
-10 17 -28 8 -37 30 -15 39 15 6 14 8 -6 16 -20 8 -23 14 -17 39 5 24 4 29 -9
24 -8 -3 -12 -12 -9 -21 5 -13 3 -13 -16 -1 -20 12 -20 14 -4 26 17 13 17 13
-2 12 -38 -4 -51 1 -26 11 19 8 21 12 11 24 -7 8 -8 15 -3 15 18 0 2 50 -16
50 -14 1 -14 2 2 11 9 5 17 19 17 30 0 11 5 30 11 41 8 14 8 23 0 31 -7 7 -6
21 4 45 19 45 19 68 -1 76 -21 8 -18 9 -47 -14z m-67 -180 c0 -12 -28 -25 -36
-17 -9 9 6 27 22 27 8 0 14 -5 14 -10z m-320 -190 c0 -5 -5 -10 -11 -10 -5 0
-7 5 -4 10 3 6 8 10 11 10 2 0 4 -4 4 -10z m-70 -35 c0 -8 -4 -15 -10 -15 -5
0 -10 7 -10 15 0 8 5 15 10 15 6 0 10 -7 10 -15z m-30 -15 c0 -5 -6 -10 -14
-10 -8 0 -16 -6 -19 -12 -2 -7 -8 -10 -12 -6 -9 8 16 37 33 38 6 0 12 -4 12
-10z"/>
<path d="M8275 4580 c-3 -5 1 -10 9 -10 9 0 16 5 16 10 0 6 -4 10 -9 10 -6 0
-13 -4 -16 -10z"/>
<path d="M1507 4574 c8 -4 9 -13 3 -28 -10 -28 1 -49 23 -40 20 7 22 20 5 27
-10 4 -10 8 1 15 18 13 5 32 -22 31 -12 0 -17 -3 -10 -5z"/>
<path d="M2334 4543 c2 -10 11 -20 22 -22 19 -3 19 -3 0 18 -23 26 -25 26 -22
4z"/>
<path d="M990 4528 c0 -7 4 -19 9 -27 7 -10 9 -7 8 12 -2 26 -17 39 -17 15z"/>
<path d="M761 4521 c-7 -5 -10 -14 -6 -20 4 -7 1 -18 -5 -26 -11 -13 -7 -15
21 -15 26 0 30 3 19 10 -12 8 -12 12 -2 18 7 5 10 16 6 25 -7 19 -13 21 -33 8z"/>
<path d="M865 4430 c3 -5 8 -10 11 -10 2 0 4 5 4 10 0 6 -5 10 -11 10 -5 0 -7
-4 -4 -10z"/>
<path d="M1514 4423 c-3 -10 -9 -26 -14 -35 -6 -11 -5 -18 3 -21 7 -3 4 -6 -5
-6 -10 -1 -19 -9 -20 -18 -5 -50 -3 -59 10 -75 8 -9 11 -22 7 -28 -4 -6 -1
-18 7 -27 10 -13 10 -15 0 -9 -10 6 -11 1 -6 -21 4 -15 11 -30 16 -31 4 -2 6
-8 3 -13 -3 -4 2 -20 11 -34 14 -21 15 -31 5 -51 -6 -14 -8 -30 -5 -36 4 -6 9
-29 11 -52 3 -23 9 -59 15 -81 5 -22 9 -53 9 -68 -1 -16 10 -42 24 -61 14 -18
25 -38 25 -44 0 -6 13 -25 30 -43 16 -18 32 -46 36 -63 4 -17 9 -26 11 -19 2
6 17 9 36 6 37 -5 61 -23 31 -23 -17 0 -17 -2 5 -19 16 -12 20 -21 12 -25 -6
-4 -11 -17 -11 -29 0 -16 -3 -18 -9 -9 -4 8 -12 13 -17 13 -17 -1 -49 11 -66
27 -16 13 -18 13 -24 -2 -4 -10 -18 -16 -35 -16 -22 0 -29 -5 -29 -19 0 -11 5
-23 10 -26 6 -3 10 -18 10 -33 0 -20 -9 -32 -31 -44 -45 -26 -65 -22 -109 20
-64 61 -88 80 -94 74 -3 -3 -6 4 -6 16 0 12 -4 22 -10 22 -5 0 -10 7 -10 15 0
8 -7 15 -15 15 -11 0 -10 -8 7 -37 12 -21 26 -41 31 -44 5 -4 -12 -14 -37 -24
-26 -10 -63 -36 -84 -59 -32 -35 -52 -46 -118 -65 -43 -13 -87 -28 -97 -33
-12 -6 -19 -5 -23 7 -9 22 -61 19 -92 -6 l-26 -20 -27 32 -26 32 -18 -26 c-17
-26 -17 -69 -1 -122 4 -16 -8 -31 -55 -70 -98 -81 -117 -134 -73 -203 89 -138
100 -152 121 -152 12 0 28 -8 35 -17 8 -10 29 -33 49 -50 l35 -33 54 45 c30
25 58 45 62 45 19 0 16 -44 -6 -94 -30 -67 -108 -310 -135 -421 -21 -88 -30
-139 -33 -199 -2 -39 -3 -39 -88 -78 -47 -22 -96 -46 -110 -54 -14 -8 -47 -27
-73 -42 -27 -15 -79 -46 -115 -70 -41 -26 -73 -40 -84 -36 -52 16 -179 -65
-345 -221 l-53 -50 0 -742 0 -743 1444 0 1445 0 11 57 c6 32 16 75 21 96 7 28
7 43 -2 53 -6 8 -7 14 -1 14 9 0 23 85 22 138 0 15 4 21 11 16 8 -5 10 3 7 24
-2 17 0 28 4 25 5 -3 8 1 7 8 -2 11 8 70 17 99 11 39 29 70 39 70 7 0 15 5 17
12 3 9 6 9 12 -1 5 -8 1 -14 -14 -18 -12 -3 -18 -9 -13 -12 30 -22 42 -150 15
-159 -8 -2 -7 -8 4 -19 8 -9 13 -22 10 -30 -3 -8 -6 -28 -6 -44 0 -20 -4 -28
-11 -23 -9 5 -10 -1 -5 -22 4 -16 10 -31 13 -34 4 -4 25 25 29 40 0 3 3 12 6
20 22 55 32 229 19 328 -8 60 -8 97 0 130 12 50 27 214 20 206 -7 -6 -42 77
-36 86 3 5 -1 10 -7 13 -9 3 -2 17 19 44 20 25 31 49 28 62 -2 11 1 24 7 27 6
4 8 2 4 -4 -3 -6 -2 -13 3 -16 5 -4 12 -2 15 3 4 5 2 12 -4 16 -6 4 -7 11 -3
18 9 15 -48 -26 -71 -52 -28 -31 -39 -25 -20 11 22 43 35 88 24 88 -5 0 -11
-9 -15 -19 -9 -28 -33 -34 -40 -10 -9 27 -8 106 1 120 5 8 3 9 -6 4 -8 -5 -23
-10 -34 -11 -12 -1 -39 -7 -61 -12 -22 -6 -64 -12 -92 -14 -48 -4 -53 -2 -53
16 0 19 -1 19 -17 4 -15 -16 -21 -14 -85 18 -55 28 -68 39 -63 52 4 9 14 48
22 87 13 56 14 80 5 125 -6 30 -14 76 -18 102 -3 26 -13 53 -21 60 -21 17
-131 13 -153 -7 -28 -26 -48 -18 -60 23 -11 39 -90 132 -113 132 -21 0 -42 29
-67 95 -12 33 -34 71 -49 83 -14 13 -19 22 -11 19 8 -2 23 7 32 22 l18 26 0
-25 c1 -24 2 -24 35 14 19 22 35 45 35 52 0 19 27 24 41 8 14 -17 33 -13 35 7
2 34 5 40 13 35 4 -3 13 6 20 20 14 31 14 37 1 29 -5 -3 -10 1 -10 9 0 9 11
18 25 22 14 4 24 9 21 11 -9 9 23 35 34 28 5 -3 10 -1 10 4 0 6 5 11 11 11 5
0 7 -4 4 -10 -10 -16 7 -12 27 7 10 9 29 18 41 20 11 2 25 9 29 16 5 8 8 7 8
-5 0 -20 20 -25 20 -5 0 7 3 8 8 2 4 -5 16 -12 27 -13 11 -2 32 -11 46 -19 32
-19 61 -11 53 14 -5 13 -2 11 10 -4 19 -25 41 -30 52 -11 5 7 2 9 -8 5 -12 -4
-15 0 -13 18 1 14 -2 22 -6 19 -5 -3 -9 2 -9 10 0 20 5 20 24 0 14 -14 16 -14
16 0 0 8 -10 22 -22 32 -16 11 -18 15 -5 10 14 -4 16 -1 13 19 -3 16 0 22 8
19 7 -3 13 2 13 11 0 15 -9 19 -37 16 -8 -1 -4 6 10 14 l25 16 -33 -7 c-31 -5
-33 -4 -23 14 12 23 5 33 -17 25 -10 -4 -13 -2 -8 5 7 12 -23 32 -40 25 -13
-4 -40 25 -30 34 3 3 6 1 6 -5 0 -7 5 -12 10 -12 22 0 8 35 -30 70 -22 21 -40
43 -40 49 0 6 -4 11 -10 11 -5 0 -10 5 -10 10 0 11 -2 14 -50 71 -16 20 -30
40 -30 45 0 5 -9 17 -19 29 -56 59 -71 77 -71 87 0 6 -3 8 -7 5 -8 -9 -32 24
-33 46 0 9 -6 17 -13 17 -6 0 -17 17 -24 37 -9 30 -9 41 3 57 16 23 19 40 5
31 -5 -3 -12 -1 -16 5 -3 5 -11 10 -16 10 -6 0 -7 -4 -4 -10 3 -5 2 -10 -4
-10 -15 0 -21 14 -14 38 4 17 9 20 18 12 10 -8 15 -8 20 0 10 16 3 20 -46 23
-38 2 -46 7 -59 34 -8 17 -23 34 -33 37 -14 3 -17 10 -12 27 5 14 4 19 -4 15
-13 -8 -34 41 -27 60 3 8 1 16 -4 19 -6 4 -10 19 -10 34 0 15 -5 32 -12 39 -9
9 -8 12 5 12 12 0 17 -8 17 -29 0 -27 29 -54 31 -28 0 7 4 3 9 -8 5 -11 9 -15
9 -8 1 6 4 19 7 27 5 12 1 16 -17 14 -16 -2 -24 3 -27 17 -2 11 -6 27 -9 35
-3 8 -5 19 -4 23 1 5 -3 6 -9 2 -5 -3 -10 1 -10 10 0 9 4 14 9 10 5 -3 13 4
16 16 4 12 12 18 21 15 8 -3 14 -1 14 4 0 6 7 10 15 10 9 0 15 9 15 23 0 16 3
18 9 9 7 -11 9 -11 14 2 4 10 -1 20 -14 27 -15 7 -18 14 -11 21 6 6 8 18 5 27
-4 11 -3 13 5 6 5 -5 12 -19 14 -29 4 -24 28 -33 28 -11 0 11 5 15 15 12 12
-5 14 3 11 44 -3 37 -1 49 8 46 9 -4 11 3 8 19 -2 13 -8 24 -13 24 -5 0 -14
11 -19 25 -15 38 -34 31 -27 -10 5 -30 3 -35 -14 -35 -10 0 -19 -5 -19 -11 0
-17 -32 -38 -59 -39 -16 0 -21 -4 -18 -15 4 -8 -4 -22 -18 -33 -13 -11 -22
-22 -18 -25 3 -4 -2 -9 -11 -13 -9 -3 -16 -12 -16 -20 0 -8 -7 -14 -16 -14
-12 0 -15 7 -12 30 3 17 1 30 -3 30 -5 0 -6 7 -3 15 4 9 0 15 -7 16 -8 0 -3 5
11 11 14 6 28 10 33 10 4 -1 7 7 7 18 0 11 7 20 15 20 11 0 12 5 5 25 -6 15
-6 25 0 25 5 0 5 13 0 31 -7 23 -4 38 11 66 20 35 18 71 -5 85 -6 4 -7 11 -2
15 4 4 14 0 21 -11 8 -10 18 -15 24 -11 15 9 14 26 -1 23 -7 -2 -12 5 -12 15
1 13 -6 17 -33 17 -31 0 -35 -3 -30 -20 4 -14 -1 -25 -14 -33 -10 -6 -19 -22
-19 -35 0 -12 -7 -25 -16 -29 -11 -4 -13 -13 -9 -34 5 -22 3 -29 -9 -29 -9 0
-16 -5 -16 -11 0 -5 5 -7 12 -3 7 4 8 3 4 -5 -12 -19 3 -61 21 -61 13 0 14 -3
5 -12 -9 -9 -15 -9 -23 -1 -12 12 -39 6 -51 -11 -6 -7 -11 -6 -18 4 -7 12 -12
8 -24 -20 -12 -28 -12 -37 -2 -45 7 -5 11 -15 9 -21 -2 -7 3 -19 12 -27 8 -9
12 -23 9 -31 -4 -11 -1 -16 10 -16 19 0 19 -2 5 -33 -8 -18 -8 -30 1 -47 8
-15 8 -20 1 -16 -18 12 -12 -16 7 -30 16 -13 16 -13 -1 -14 -10 0 -17 -6 -15
-12 6 -18 -14 -36 -34 -30 -10 2 -18 0 -18 -6 0 -17 44 -19 57 -2 10 13 12 10
13 -18 0 -24 6 -35 24 -43 14 -7 22 -17 20 -24 -3 -7 -1 -16 5 -20 6 -3 11
-13 11 -21 0 -8 9 -23 20 -34 16 -16 18 -25 10 -40 -11 -21 -60 -28 -60 -9 0
5 -5 7 -10 4 -6 -3 -10 1 -10 10 0 10 -5 13 -12 9 -7 -5 -9 -1 -6 13 3 11 1
28 -4 37 -6 10 -5 16 2 16 5 0 10 5 10 10 0 6 -7 10 -15 10 -8 0 -15 7 -15 16
0 8 -18 34 -40 56 -40 42 -49 58 -29 58 5 0 7 5 4 11 -4 6 -12 8 -19 6 -7 -3
-12 5 -12 22 -1 30 -14 84 -23 91 -3 3 -17 25 -30 49 -20 38 -22 52 -16 105 5
47 1 79 -14 134 -11 40 -20 76 -20 80 -1 4 -4 7 -8 7 -23 1 -32 19 -28 55 2
22 0 42 -4 45 -5 2 -7 18 -5 34 2 19 -2 31 -12 35 -11 4 -13 15 -10 38 3 18 8
59 10 91 4 51 2 57 -15 57 -17 0 -24 -11 -20 -32 0 -5 -3 -8 -9 -8 -5 0 -10 7
-10 15 0 9 -6 12 -15 9 -11 -5 -13 -10 -5 -19 6 -7 8 -19 5 -27 -3 -8 3 -23
15 -33 20 -18 27 -45 12 -45 -4 0 -14 6 -21 13 -11 10 -13 9 -7 -6 3 -10 6
-31 6 -45 0 -22 2 -24 11 -12 9 12 10 11 4 -5 -12 -35 -10 -40 9 -40 24 0 31
-18 17 -42 -8 -13 -10 -14 -11 -4 0 11 -6 8 -20 -7 -12 -12 -25 -22 -30 -22
-12 0 -12 3 0 34 8 22 7 26 -8 26 -15 0 -15 2 -2 10 13 9 11 13 -9 29 -13 10
-21 23 -18 28 3 5 2 35 -2 67 -6 45 -5 59 6 63 18 7 17 23 -3 23 -8 0 -12 -4
-9 -10 3 -5 1 -10 -4 -10 -6 0 -11 15 -11 34 0 39 -17 57 -26 29z m116 -339
c0 -8 -4 -12 -10 -9 -5 3 -10 10 -10 16 0 5 5 9 10 9 6 0 10 -7 10 -16z m-79
-27 c-10 -9 -11 -8 -5 6 3 10 9 15 12 12 3 -3 0 -11 -7 -18z m122 -22 c10 -15
13 -26 7 -30 -5 -3 -10 -1 -10 4 0 6 -7 11 -15 11 -22 0 -18 -18 5 -25 11 -3
20 -12 20 -20 0 -7 5 -15 11 -17 9 -3 9 -10 0 -27 -9 -16 -10 -35 -3 -68 9
-41 8 -46 -9 -50 -21 -6 -25 -18 -9 -28 14 -8 3 -25 -16 -25 -14 0 -34 37 -38
70 -1 8 -7 26 -13 40 -22 52 -25 86 -8 100 13 11 13 15 3 22 -10 7 -9 11 5 22
9 7 17 20 17 27 0 24 34 19 53 -6z m359 -127 c-7 -7 -12 -8 -12 -2 0 14 12 26
19 19 2 -3 -1 -11 -7 -17z m228 -88 c0 -5 -2 -10 -4 -10 -3 0 -8 5 -11 10 -3
6 -1 10 4 10 6 0 11 -4 11 -10z m-73 -6 c-3 -3 -12 -4 -19 -1 -8 3 -5 6 6 6
11 1 17 -2 13 -5z m1 -63 c3 -9 -2 -11 -17 -6 -23 7 -28 -4 -9 -23 18 -18 3
-25 -21 -10 -25 15 -26 22 -5 43 19 18 45 17 52 -4z m-515 -22 c3 -12 10 -18
16 -15 14 9 61 -15 61 -31 0 -8 -4 -11 -10 -8 -5 3 -10 -1 -10 -9 0 -24 -17
-19 -23 7 -4 12 -22 31 -42 41 -38 21 -45 36 -16 36 11 0 21 -9 24 -21z m42
11 c3 -5 1 -10 -4 -10 -6 0 -11 5 -11 10 0 6 2 10 4 10 3 0 8 -4 11 -10z m256
-87 c-8 -15 -10 -15 -11 -2 0 17 10 32 18 25 2 -3 -1 -13 -7 -23z m39 -163 c0
-5 -2 -10 -4 -10 -3 0 -8 5 -11 10 -3 6 -1 10 4 10 6 0 11 -4 11 -10z m173
-146 c-7 -19 -10 -18 -16 5 -3 13 -1 18 9 14 7 -2 10 -11 7 -19z m-283 -44 c0
-5 -2 -10 -4 -10 -3 0 -8 5 -11 10 -3 6 -1 10 4 10 6 0 11 -4 11 -10z m481
-830 c4 -14 7 -35 8 -47 1 -22 1 -22 -26 3 -35 33 -41 72 -10 70 14 -1 24 -10
28 -26z m69 -41 c0 -13 -24 -11 -38 3 -7 7 -12 23 -12 36 l0 25 25 -27 c14
-15 25 -31 25 -37z m-1410 -335 c0 -8 -4 -14 -10 -14 -5 0 -10 9 -10 21 0 11
5 17 10 14 6 -3 10 -13 10 -21z m1787 -1446 c-3 -8 -6 -5 -6 6 -1 11 2 17 5
13 3 -3 4 -12 1 -19z"/>
<path d="M1621 3974 c0 -11 3 -14 6 -6 3 7 2 16 -1 19 -3 4 -6 -2 -5 -13z"/>
<path d="M532 4403 c1 -10 -1 -24 -5 -31 -9 -13 0 -52 11 -52 4 0 8 23 9 50 1
28 -3 50 -8 50 -6 0 -9 -8 -7 -17z"/>
<path d="M2110 4411 c0 -6 5 -11 10 -11 6 0 10 -5 10 -11 0 -5 -5 -7 -12 -3
-8 5 -9 2 -4 -12 13 -32 16 -103 6 -109 -6 -4 -7 -12 -3 -18 11 -17 10 -31 -1
-39 -5 -3 -11 -16 -13 -27 -2 -16 3 -21 18 -21 12 0 19 5 16 13 -2 6 0 20 5
30 5 11 10 40 10 65 0 26 5 53 11 61 9 11 9 13 1 8 -8 -4 -14 5 -18 27 -6 33
-36 72 -36 47z"/>
<path d="M1925 4380 c-8 -13 3 -50 15 -50 9 0 8 19 -3 37 -4 7 0 13 10 16 16
4 16 5 1 6 -9 0 -20 -4 -23 -9z"/>
<path d="M1280 4316 c0 -9 5 -16 10 -16 6 0 10 4 10 9 0 6 -4 13 -10 16 -5 3
-10 -1 -10 -9z"/>
<path d="M1920 4311 c0 -6 4 -13 10 -16 6 -3 7 1 4 9 -7 18 -14 21 -14 7z"/>
<path d="M597 4280 c-28 -149 -30 -240 -5 -240 6 0 8 22 5 55 -2 31 0 58 5 61
5 3 7 12 4 19 -3 8 -2 26 2 42 5 15 5 44 2 63 l-6 35 -7 -35z"/>
<path d="M6378 4271 c-27 -26 -38 -48 -18 -36 6 3 7 -1 4 -9 -4 -11 0 -16 10
-16 9 0 16 -4 16 -10 0 -5 9 -10 20 -10 11 0 20 7 20 15 0 8 -4 15 -10 15 -5
0 -10 -5 -10 -11 0 -5 -4 -7 -10 -4 -5 3 -10 18 -10 33 0 20 3 23 12 14 18
-18 25 -14 24 15 -1 35 -15 36 -48 4z"/>
<path d="M2181 4254 c0 -11 3 -14 6 -6 3 7 2 16 -1 19 -3 4 -6 -2 -5 -13z"/>
<path d="M1196 4234 c5 -18 3 -25 -4 -20 -6 3 -14 1 -18 -5 -4 -8 -3 -9 4 -5
7 4 12 2 12 -3 0 -6 -5 -11 -11 -11 -8 0 -7 -5 1 -15 11 -13 10 -15 -6 -9 -14
4 -16 3 -5 -4 7 -5 10 -15 7 -21 -11 -18 5 -13 21 7 12 15 13 14 9 -16 -2 -18
-8 -38 -13 -45 -5 -7 -10 -23 -11 -37 -1 -18 1 -21 8 -11 7 12 12 12 23 3 12
-10 16 -8 21 13 4 14 10 24 15 22 5 -1 9 1 10 6 3 25 -2 39 -24 65 -13 16 -22
32 -18 36 3 3 2 6 -3 6 -5 0 -9 16 -8 35 1 19 -2 35 -7 35 -5 0 -6 -12 -3 -26z"/>
<path d="M7639 4260 c-6 -19 -5 -50 2 -50 15 0 20 20 10 37 -6 10 -11 16 -12
13z"/>
<path d="M1580 4235 c-7 -9 -11 -18 -8 -20 3 -3 11 1 18 10 7 9 11 18 8 20 -3
3 -11 -1 -18 -10z"/>
<path d="M1111 4224 c0 -11 3 -14 6 -6 3 7 2 16 -1 19 -3 4 -6 -2 -5 -13z"/>
<path d="M7676 4205 c-3 -8 -1 -15 4 -15 13 0 22 18 11 24 -5 3 -11 -1 -15 -9z"/>
<path d="M7526 4135 c-25 -19 -9 -19 24 0 14 8 19 14 10 14 -8 0 -24 -6 -34
-14z"/>
<path d="M7690 4125 c0 -9 6 -12 15 -9 8 4 12 10 9 15 -8 14 -24 10 -24 -6z"/>
<path d="M1122 4059 c-17 -33 -25 -55 -17 -49 17 14 29 -15 15 -38 -7 -13 -9
-14 -10 -2 0 11 -2 12 -12 1 -11 -10 -10 -15 5 -25 22 -17 21 -22 -3 -48 -11
-12 -20 -26 -20 -31 0 -6 11 2 25 17 13 14 31 26 39 26 10 0 13 6 10 15 -5 11
-1 14 12 9 18 -5 18 -5 0 10 -22 18 -14 21 13 7 15 -9 17 -5 16 25 0 23 -7 39
-19 46 -14 8 -16 17 -11 48 10 60 -10 55 -43 -11z m65 -81 c-3 -8 -6 -5 -6 6
-1 11 2 17 5 13 3 -3 4 -12 1 -19z"/>
<path d="M7162 4080 c-8 -13 -8 -20 -2 -20 6 0 13 7 17 15 9 24 -1 27 -15 5z"/>
<path d="M7763 4093 c-27 -10 -11 -18 27 -15 22 2 40 7 40 11 0 7 -49 10 -67
4z"/>
<path d="M1070 4080 c0 -5 7 -10 16 -10 8 0 12 5 9 10 -3 6 -10 10 -16 10 -5
0 -9 -4 -9 -10z"/>
<path d="M8117 4058 c-15 -16 -26 -18 -59 -13 -30 5 -49 2 -75 -11 -27 -14
-37 -16 -40 -6 -3 6 -9 12 -14 12 -4 0 -6 -6 -3 -13 2 -7 -4 -21 -15 -31 -11
-10 -18 -23 -15 -27 3 -5 1 -9 -4 -9 -5 0 -20 -20 -33 -45 -24 -46 -37 -53
-56 -34 -7 7 -12 5 -16 -10 -3 -14 1 -21 19 -25 14 -4 24 -14 24 -24 0 -20
-84 -172 -101 -183 -6 -3 -11 -10 -12 -15 -1 -5 -4 -8 -7 -8 -3 1 -15 -9 -28
-22 -12 -13 -20 -24 -16 -24 3 0 1 -7 -6 -15 -22 -27 0 -16 24 12 17 20 23 22
23 10 0 -10 -3 -17 -6 -17 -3 0 -12 -14 -20 -32 -8 -17 -21 -39 -30 -48 -44
-46 -69 -79 -64 -84 4 -3 -2 -15 -13 -27 -10 -11 -14 -20 -9 -19 21 5 35 -1
35 -13 0 -26 -134 -344 -153 -364 -9 -9 -22 -10 -45 -4 -40 12 -139 17 -149 8
-3 -4 -17 -7 -30 -7 -13 0 -23 -6 -23 -14 0 -8 -6 -16 -12 -19 -7 -2 -10 -8
-6 -12 11 -11 39 15 31 29 -4 6 0 6 9 -2 9 -7 14 -21 11 -31 -3 -10 0 -22 6
-25 6 -4 11 -16 11 -27 0 -11 5 -30 12 -42 7 -12 13 -29 14 -37 2 -8 7 -16 13
-18 11 -4 4 -51 -10 -68 -5 -6 -23 -14 -40 -18 -24 -5 -29 -10 -24 -25 3 -11
1 -22 -5 -26 -19 -12 -57 4 -63 25 -5 20 -49 44 -55 29 -2 -4 4 -22 13 -40 17
-31 17 -33 -6 -50 -23 -17 -23 -18 -4 -24 43 -13 70 -31 73 -49 3 -16 0 -18
-23 -12 -24 6 -25 5 -15 -14 9 -16 15 -18 30 -10 25 13 30 13 30 -4 0 -8 -12
-24 -27 -35 -16 -11 -39 -29 -53 -40 -14 -11 -37 -30 -52 -42 -24 -17 -26 -24
-17 -41 8 -15 8 -23 -2 -32 -9 -8 -11 -7 -6 6 9 25 -11 33 -33 13 -10 -9 -24
-14 -29 -10 -6 3 -11 1 -11 -5 0 -6 -7 -19 -16 -27 -15 -15 -14 -18 5 -33 22
-16 22 -16 -14 -33 -35 -17 -44 -31 -25 -42 15 -9 87 32 130 75 22 22 46 40
54 40 7 0 19 7 26 15 7 8 16 15 20 15 4 0 31 16 60 35 29 19 63 35 76 35 13 0
24 4 24 8 0 9 47 8 57 -1 7 -8 -25 -47 -38 -47 -14 0 -49 -34 -49 -47 0 -12
18 -1 55 35 8 6 18 12 24 12 6 0 11 7 11 16 0 11 6 15 19 11 12 -3 18 1 17 12
-1 9 5 15 14 13 8 -2 12 0 8 4 -4 4 -3 13 4 21 6 7 8 17 4 20 -4 4 -10 3 -14
-3 -10 -16 -49 -26 -56 -15 -7 11 41 51 62 51 8 0 24 -10 35 -22 l19 -23 -7
23 -7 24 21 -21 c24 -24 37 -27 43 -9 4 10 18 10 68 0 91 -17 94 -8 30 95 -17
27 -13 32 41 44 38 9 45 8 63 -13 55 -61 76 -98 76 -134 0 -31 7 -44 42 -76
38 -35 54 -43 84 -39 7 1 24 -3 38 -9 27 -10 27 -10 9 -35 -10 -13 -25 -25
-33 -25 -12 0 -12 -2 2 -10 11 -7 15 -19 12 -37 -4 -23 -3 -25 11 -13 14 12
15 9 12 -23 -5 -42 2 -46 28 -17 32 35 28 13 -5 -34 -18 -24 -29 -49 -26 -54
8 -13 46 -3 46 11 0 5 19 29 43 51 23 23 53 56 67 73 25 32 50 43 50 21 0 -6
3 -8 6 -5 4 4 2 13 -4 20 -15 18 -5 27 26 27 14 0 33 7 42 15 15 13 21 13 59
-2 42 -16 43 -16 60 5 9 11 29 26 45 32 24 9 32 7 49 -7 53 -46 59 -55 55 -84
-3 -17 0 -29 6 -29 15 0 39 57 34 78 -7 26 17 45 32 27 16 -19 30 -19 30 0 0
8 -5 15 -11 15 -5 0 -7 5 -3 11 4 8 9 7 15 -2 9 -14 12 -9 22 39 7 32 -30 30
-45 -3 -6 -14 -22 -28 -35 -31 -13 -4 -23 -13 -23 -21 0 -10 -6 -13 -16 -9 -9
3 -20 6 -25 6 -5 0 -9 11 -9 25 0 18 9 31 30 43 16 9 30 22 30 28 0 6 10 22
23 35 13 13 38 45 57 72 18 26 37 47 42 47 4 0 8 7 8 16 0 13 3 14 14 5 10 -9
20 -4 46 21 17 18 36 43 41 56 9 23 29 31 29 11 0 -20 31 13 61 66 16 27 40
63 54 79 30 35 30 35 5 33 -11 -1 -20 -5 -20 -10 0 -4 -4 -5 -10 -2 -5 3 -10
1 -10 -5 0 -7 -7 -10 -15 -6 -9 3 -15 0 -15 -9 0 -8 -4 -15 -10 -15 -5 0 -10
5 -10 11 0 5 -5 7 -11 3 -8 -5 -8 -9 1 -14 10 -6 7 -16 -10 -40 -12 -17 -25
-29 -28 -26 -3 3 3 15 13 26 10 11 15 23 11 27 -4 5 -12 -1 -19 -12 -6 -11
-23 -33 -39 -48 -15 -15 -44 -48 -64 -73 -40 -49 -41 -49 -68 -29 -19 14 -19
16 -2 34 14 16 15 23 6 41 -11 20 -10 21 9 10 20 -10 31 2 12 14 -13 9 -1 46
15 46 8 0 13 6 11 13 -1 6 4 11 11 9 8 -1 10 2 7 8 -4 6 1 20 11 31 9 10 14
22 11 25 -8 8 53 64 71 64 6 0 12 -4 12 -10 0 -16 26 -11 43 8 10 10 17 28 17
40 0 29 18 37 23 10 3 -19 5 -18 6 6 0 16 4 27 7 23 4 -3 22 5 42 18 41 28 46
27 33 -6 -9 -24 -7 -25 27 -21 20 3 41 10 47 16 22 24 54 103 59 146 4 25 8
57 10 73 8 56 -20 92 -50 63 -7 -8 -22 -12 -32 -9 -11 3 -30 -8 -52 -31 l-35
-35 -8 32 c-5 17 -10 44 -12 60 -4 34 -28 73 -55 87 -24 13 -66 3 -83 -19 -6
-9 -29 -17 -51 -19 -44 -4 -108 -41 -132 -76 -8 -14 -22 -22 -29 -19 -9 3 -16
-4 -20 -20 -7 -25 -18 -29 -43 -13 -16 9 -15 10 -36 -32 -14 -28 -15 -33 -2
-38 16 -6 15 -29 -2 -46 -7 -7 -12 -19 -12 -28 0 -19 -29 -44 -55 -48 -75 -10
-85 -9 -85 7 0 9 -4 23 -10 31 -8 12 -11 12 -27 -2 -12 -10 -25 -13 -38 -8
-11 5 -35 6 -52 3 -29 -5 -33 -2 -33 17 0 13 -5 20 -12 17 -7 -2 -12 -10 -10
-16 1 -7 -2 -10 -8 -6 -5 3 -10 13 -10 21 0 8 -4 14 -10 14 -5 0 -10 -6 -10
-12 0 -10 -2 -10 -9 0 -4 8 -10 12 -12 10 -5 -3 -31 17 -57 45 -9 9 -23 17
-30 17 -10 0 -12 -6 -7 -17 4 -10 7 -22 7 -28 -1 -5 -4 -38 -7 -72 -7 -65 -7
-63 32 -63 4 0 8 7 8 15 0 8 3 15 8 15 38 0 42 -2 43 -25 1 -14 -2 -23 -6 -20
-4 3 -10 -1 -13 -9 -4 -9 2 -13 19 -13 13 0 24 3 24 8 0 20 16 7 17 -13 1 -13
-1 -18 -5 -13 -10 14 -105 14 -115 1 -6 -8 -10 -7 -14 2 -2 6 -9 10 -14 6 -5
-3 -9 2 -9 11 0 9 -6 15 -14 13 -8 -2 -22 6 -33 17 -24 27 -63 48 -63 35 0 -5
-7 -10 -15 -10 -12 0 -11 6 5 34 10 19 22 57 25 83 18 147 20 173 13 173 -4 0
-8 -9 -8 -20 0 -11 -4 -20 -8 -20 -8 0 -35 -81 -37 -115 -3 -40 -26 -93 -43
-100 -9 -3 -18 -1 -20 4 -5 15 -21 14 -38 -4 -18 -18 -34 -20 -34 -4 0 6 -7 8
-16 5 -14 -5 -16 -1 -11 27 4 26 1 36 -15 46 -11 7 -21 11 -22 9 -31 -52 -61
-86 -75 -85 -16 1 -15 10 14 92 18 49 60 144 94 210 33 65 61 123 61 127 0 5
27 49 60 100 33 50 60 97 60 104 0 7 4 16 10 19 5 3 17 23 27 43 10 20 27 47
39 59 12 12 28 30 36 40 7 10 26 26 41 36 15 10 25 22 23 26 -8 13 35 48 87
71 47 21 63 51 35 64 -10 3 -8 9 5 19 9 8 17 19 17 26 0 17 -23 12 -43 -11z
m-237 -214 c0 -8 -5 -12 -10 -9 -6 4 -8 11 -5 16 9 14 15 11 15 -7z m889 -540
c-14 -18 -24 -11 -15 11 3 9 11 13 16 10 8 -5 7 -11 -1 -21z m-269 -139 c0 -8
-7 -15 -15 -15 -9 0 -12 6 -9 15 4 8 10 15 15 15 5 0 9 -7 9 -15z m-925 -165
c3 -5 -3 -10 -15 -10 -12 0 -18 5 -15 10 3 6 10 10 15 10 5 0 12 -4 15 -10z
m91 -11 c20 -18 21 -24 9 -35 -7 -8 -17 -14 -22 -14 -4 0 -14 -9 -21 -20 -24
-39 -114 -15 -109 29 4 27 21 39 32 22 3 -6 13 -11 22 -11 9 0 13 3 10 7 -6 5
37 40 52 42 3 1 15 -9 27 -20z m624 11 c0 -5 -5 -10 -11 -10 -5 0 -7 5 -4 10
3 6 8 10 11 10 2 0 4 -4 4 -10z m115 -10 c3 -6 -1 -13 -10 -16 -19 -8 -30 0
-20 15 8 14 22 14 30 1z m-225 -41 c12 -9 12 -10 -4 -5 -11 4 -23 1 -27 -6 -4
-7 -11 -9 -16 -5 -4 5 -1 12 7 17 19 12 22 12 40 -1z m-356 -23 c-4 -11 0 -13
16 -9 15 4 26 0 32 -11 5 -9 19 -16 31 -16 l21 0 -21 -22 c-19 -19 -26 -20
-48 -10 -39 18 -65 15 -65 -7 0 -21 -25 -45 -38 -37 -14 8 -1 66 14 66 8 0 14
7 14 15 0 8 -7 15 -15 15 -21 0 -19 18 3 23 38 10 61 7 56 -7z m-484 -216
c-19 -13 -30 -13 -30 0 0 6 10 10 23 10 18 0 19 -2 7 -10z m140 -20 c0 -5 -4
-10 -10 -10 -5 0 -10 5 -10 10 0 6 5 10 10 10 6 0 10 -4 10 -10z m-182 -40 c3
-9 -1 -11 -12 -7 -10 4 -24 7 -32 7 -8 0 -14 4 -14 9 0 14 53 6 58 -9z m93 10
c15 0 18 -7 16 -39 -1 -23 -6 -37 -13 -34 -6 2 -17 -3 -24 -12 -18 -21 -53
-19 -68 6 -12 18 -10 25 13 55 17 22 33 33 42 30 8 -3 23 -6 34 -6z m329 -7
c-1 -16 -30 -46 -37 -39 -4 4 -1 11 7 16 8 6 11 10 7 10 -11 0 2 20 14 20 5 0
9 -3 9 -7z m-160 -34 c0 -5 -7 -9 -15 -9 -9 0 -12 6 -9 15 6 15 24 11 24 -6z
m1039 -20 c17 -12 35 -18 43 -14 7 4 -7 -11 -32 -34 -25 -22 -48 -41 -52 -41
-5 0 -8 -6 -8 -12 0 -7 -6 -21 -13 -30 -12 -15 -14 -15 -26 4 -12 19 -11 20 6
14 14 -6 16 -5 6 5 -19 19 -16 34 3 18 14 -11 15 -9 11 19 -4 23 -1 32 8 32 8
0 17 -4 20 -10 12 -19 26 -10 15 10 -9 16 -8 18 5 14 22 -9 18 5 -7 27 -31 25
-14 24 21 -2z m-1165 -55 c-12 -10 -11 -13 12 -18 21 -6 24 -9 14 -21 -15 -18
-41 -20 -35 -2 3 6 -5 17 -17 22 -32 15 -32 30 -1 41 33 12 52 -4 27 -22z
m-92 -8 c7 4 8 2 4 -4 -11 -18 -26 -14 -25 6 0 10 3 12 6 4 2 -6 10 -9 15 -6z
m1154 -111 c-9 -9 -16 -20 -16 -23 0 -4 -9 -13 -19 -19 -15 -10 -22 -9 -31 2
-9 11 -4 17 24 30 37 18 44 29 26 40 -5 3 -10 11 -10 18 0 6 10 2 21 -10 20
-20 21 -23 5 -38z m-1279 4 c13 -13 -25 -54 -61 -65 -11 -3 -28 -13 -37 -20
-19 -17 -49 -9 -49 12 0 21 30 30 41 13 8 -12 10 -12 8 1 -3 29 1 40 15 40 8
0 16 7 20 15 6 18 47 20 63 4z"/>
<path d="M1322 4033 c5 -25 28 -28 28 -4 0 12 -6 21 -16 21 -9 0 -14 -7 -12
-17z"/>
<path d="M577 4008 c-8 -30 -1 -35 12 -9 6 11 7 22 2 25 -5 3 -11 -4 -14 -16z"/>
<path d="M7795 4020 c-3 -5 -1 -10 4 -10 6 0 11 5 11 10 0 6 -2 10 -4 10 -3 0
-8 -4 -11 -10z"/>
<path d="M7735 4000 c-3 -5 -1 -10 4 -10 6 0 11 5 11 10 0 6 -2 10 -4 10 -3 0
-8 -4 -11 -10z"/>
<path d="M2260 3981 c0 -9 41 -23 48 -16 2 2 1 8 -3 14 -8 13 -45 15 -45 2z"/>
<path d="M970 3951 c0 -5 7 -12 16 -15 14 -5 15 -4 4 9 -14 17 -20 19 -20 6z"/>
<path d="M1215 3930 c3 -5 10 -10 16 -10 5 0 9 5 9 10 0 6 -7 10 -16 10 -8 0
-12 -4 -9 -10z"/>
<path d="M1177 3913 c-4 -3 -7 -11 -7 -17 0 -6 5 -5 12 2 6 6 9 14 7 17 -3 3
-9 2 -12 -2z"/>
<path d="M987 3868 c-3 -12 -1 -29 4 -37 9 -14 10 -13 5 2 -3 10 -1 27 4 38 6
11 7 19 2 19 -6 0 -12 -10 -15 -22z"/>
<path d="M1034 3775 c-9 -34 -2 -40 13 -9 6 13 7 26 2 29 -4 3 -11 -6 -15 -20z"/>
<path d="M8330 3790 c0 -5 5 -10 11 -10 5 0 7 5 4 10 -3 6 -8 10 -11 10 -2 0
-4 -4 -4 -10z"/>
<path d="M6342 3776 c4 -5 2 -19 -3 -33 -8 -21 -7 -24 7 -19 8 3 24 1 34 -4
13 -7 21 -7 25 0 3 5 14 10 24 10 9 0 26 7 37 16 18 15 18 15 -6 10 -90 -19
-113 -19 -107 -3 3 9 1 19 -6 23 -7 4 -9 4 -5 0z"/>
<path d="M1240 3755 c0 -8 -4 -15 -10 -15 -16 0 -12 -47 5 -54 12 -4 15 4 15
39 0 25 -2 45 -5 45 -3 0 -5 -7 -5 -15z"/>
<path d="M988 3743 c6 -2 9 -10 6 -15 -4 -7 -2 -8 5 -4 13 9 5 26 -12 25 -9 0
-8 -2 1 -6z"/>
<path d="M2277 3710 c-3 -14 -2 -29 3 -34 15 -15 20 -3 11 29 l-7 30 -7 -25z"/>
<path d="M6560 3720 c0 -5 5 -10 11 -10 5 0 7 5 4 10 -3 6 -8 10 -11 10 -2 0
-4 -4 -4 -10z"/>
<path d="M2381 3704 c0 -11 3 -14 6 -6 3 7 2 16 -1 19 -3 4 -6 -2 -5 -13z"/>
<path d="M2293 3649 c-7 -7 -7 -18 1 -35 15 -33 26 -30 21 7 -5 37 -8 42 -22
28z"/>
<path d="M1246 3625 c4 -8 10 -12 15 -9 14 8 10 24 -6 24 -9 0 -12 -6 -9 -15z"/>
<path d="M2248 3623 c7 -3 16 -2 19 1 4 3 -2 6 -13 5 -11 0 -14 -3 -6 -6z"/>
<path d="M2164 3596 c0 -13 4 -22 9 -19 10 6 9 31 -2 37 -5 3 -8 -5 -7 -18z"/>
<path d="M2201 3590 c0 -8 4 -22 9 -30 12 -18 12 -2 0 25 -6 13 -9 15 -9 5z"/>
<path d="M1297 3584 c-8 -8 1 -24 12 -24 4 0 8 7 8 15 0 16 -9 20 -20 9z"/>
<path d="M6245 3580 c-3 -5 -1 -10 4 -10 6 0 11 5 11 10 0 6 -2 10 -4 10 -3 0
-8 -4 -11 -10z"/>
<path d="M7923 3555 c-3 -9 -3 -18 -1 -21 3 -3 8 4 11 16 6 23 -1 27 -10 5z"/>
<path d="M7579 3491 c-26 -27 -49 -60 -52 -73 -4 -12 -22 -34 -42 -47 -19 -13
-35 -28 -35 -33 0 -7 -60 -40 -80 -43 -16 -2 -28 -18 -24 -30 6 -16 -50 -50
-67 -40 -5 4 -8 1 -7 -6 2 -7 -8 -15 -22 -19 -14 -4 -24 -12 -23 -17 1 -6 -6
-9 -16 -6 -27 7 -34 -12 -17 -44 8 -16 15 -22 16 -15 0 6 8 12 18 12 11 1 6 6
-13 15 l-30 14 35 0 c65 -2 70 0 63 19 -3 9 -3 14 2 10 4 -4 18 5 30 20 13 15
35 34 49 41 14 8 26 19 26 25 0 12 58 41 66 34 9 -9 -8 -38 -22 -38 -8 0 -17
-7 -20 -15 -4 -8 -12 -15 -20 -15 -8 0 -14 -4 -14 -10 0 -5 7 -10 16 -10 13 0
15 -7 10 -31 -5 -28 -4 -30 11 -18 13 11 17 11 20 2 7 -20 23 -15 23 6 0 11 4
22 9 25 13 9 19 54 8 65 -7 7 -1 22 18 47 20 27 24 38 15 44 -8 5 -9 10 -2 14
6 3 12 0 15 -6 3 -9 12 -6 28 10 13 12 18 22 12 22 -7 0 -17 -8 -23 -17 -10
-16 -11 -16 -5 2 4 11 8 25 9 31 1 6 23 33 49 59 45 46 56 65 40 65 -5 -1 -29
-23 -54 -49z m-89 -160 c0 -12 -20 -25 -27 -18 -7 7 6 27 18 27 5 0 9 -4 9 -9z"/>
<path d="M5940 3505 c0 -8 7 -15 15 -15 8 0 15 7 15 15 0 8 -7 15 -15 15 -8 0
-15 -7 -15 -15z"/>
<path d="M6570 3509 c0 -5 5 -7 10 -4 6 3 10 8 10 11 0 2 -4 4 -10 4 -5 0 -10
-5 -10 -11z"/>
<path d="M7931 3503 c-1 -12 -4 -28 -7 -37 -3 -9 -2 -16 4 -16 14 0 20 32 11
55 -7 19 -8 19 -8 -2z"/>
<path d="M2179 3472 c14 -27 38 -45 50 -38 15 10 1 38 -16 32 -7 -3 -16 1 -19
9 -4 8 -10 15 -15 15 -6 0 -6 -7 0 -18z"/>
<path d="M7942 3447 c-9 -10 -10 -22 -3 -40 8 -20 6 -30 -10 -48 -10 -12 -18
-34 -18 -48 l2 -26 4 28 c3 15 11 27 19 27 8 0 17 7 20 15 4 8 12 15 20 15 20
0 17 40 -4 68 -16 20 -20 21 -30 9z"/>
<path d="M2195 3418 c4 -11 2 -18 -4 -18 -6 0 -11 -4 -11 -10 0 -16 17 -11 24
7 4 9 2 21 -4 27 -8 8 -9 6 -5 -6z"/>
<path d="M7487 3413 c-4 -3 -7 -11 -7 -17 0 -6 5 -5 12 2 6 6 9 14 7 17 -3 3
-9 2 -12 -2z"/>
<path d="M8314 3325 c-6 -23 -24 -36 -24 -17 0 4 -10 8 -22 9 -13 1 -38 4 -57
7 -30 5 -33 4 -28 -14 3 -11 1 -23 -4 -26 -17 -10 -9 -30 11 -30 13 0 23 9 26
22 4 17 13 22 40 22 24 0 34 -5 34 -15 0 -11 6 -8 18 8 24 31 34 59 22 59 -5
0 -12 -11 -16 -25z"/>
<path d="M730 3322 c0 -10 22 -32 32 -32 15 0 8 15 -12 28 -11 7 -20 9 -20 4z"/>
<path d="M8260 3270 c0 -5 5 -10 10 -10 6 0 10 5 10 10 0 6 -4 10 -10 10 -5 0
-10 -4 -10 -10z"/>
<path d="M2535 3250 c3 -5 8 -10 11 -10 2 0 4 5 4 10 0 6 -5 10 -11 10 -5 0
-7 -4 -4 -10z"/>
<path d="M8200 3230 c0 -5 5 -10 11 -10 5 0 7 5 4 10 -3 6 -8 10 -11 10 -2 0
-4 -4 -4 -10z"/>
<path d="M5125 3221 c-22 -3 -91 -6 -152 -6 -62 0 -113 -4 -113 -9 0 -5 -6 -3
-14 3 -8 7 -30 11 -48 8 -32 -4 -32 -4 7 -7 43 -3 42 -3 -204 -29 -57 -6 -186
-13 -287 -14 -181 -3 -183 -4 -218 -31 -20 -15 -36 -31 -36 -37 0 -20 -2 -25
-19 -44 -33 -36 -61 -110 -92 -245 -34 -149 3 -325 85 -405 290 -282 416 -341
669 -316 56 6 134 16 172 22 39 6 77 11 85 10 8 0 43 -3 78 -7 88 -9 180 10
319 65 29 11 58 19 65 17 7 -1 10 -1 7 1 -10 6 249 269 327 332 40 32 97 73
128 91 74 41 105 88 107 158 2 43 7 57 24 68 17 11 23 25 23 56 1 55 -11 74
-49 82 -31 6 -32 6 -24 54 11 73 11 117 0 117 -5 0 -15 4 -22 8 -6 4 -32 8
-57 9 -24 1 -43 5 -41 8 2 3 -3 14 -12 25 -14 20 -15 20 -28 1 -12 -16 -30
-19 -122 -22 -67 -1 -110 1 -114 8 -5 7 -12 7 -25 0 -13 -7 -29 -5 -62 9 -48
21 -151 26 -183 9 -13 -8 -32 -7 -62 0 -66 17 -69 18 -112 11z m-655 -421
c-10 -18 -8 -24 7 -35 16 -12 19 -10 29 13 6 15 9 33 6 40 -3 8 4 11 19 9 13
-2 25 -10 27 -18 3 -11 1 -11 -7 1 -6 8 -11 10 -11 4 0 -6 3 -13 6 -17 9 -9
35 4 28 14 -3 5 20 9 50 9 58 0 96 -22 96 -55 0 -22 35 -18 51 5 8 11 38 26
71 34 73 19 125 7 134 -29 7 -30 10 -30 65 -5 58 26 110 26 132 0 19 -23 42
-26 54 -7 19 33 62 48 138 50 72 2 78 0 100 -25 22 -25 24 -26 30 -9 9 29 60
48 160 60 80 10 91 9 100 -5 6 -9 27 -38 48 -64 20 -26 37 -52 37 -58 0 -6
-15 -31 -34 -55 -19 -25 -36 -53 -38 -63 -7 -37 -59 -29 -153 23 -11 6 -41 20
-66 32 -38 16 -47 26 -53 53 l-6 33 -27 -45 c-15 -25 -29 -47 -33 -50 -3 -3
-16 -12 -29 -21 -14 -11 -23 -28 -23 -48 -1 -36 8 -49 23 -34 7 7 17 7 34 -1
17 -8 24 -21 28 -54 7 -60 -7 -104 -43 -135 -17 -15 -30 -31 -30 -36 0 -5 -14
-12 -31 -16 -25 -6 -36 -2 -58 19 -15 14 -31 26 -37 26 -11 0 -74 58 -74 69 0
58 30 93 95 112 18 5 15 8 -17 28 -40 24 -46 36 -25 44 7 3 5 6 -6 6 -9 1 -16
4 -16 9 1 4 1 21 0 37 -2 28 -2 29 -13 10 -7 -11 -13 -35 -14 -53 -3 -49 -21
-65 -62 -57 -44 8 -80 30 -113 69 -24 27 -28 28 -42 14 -9 -9 -14 -18 -11 -20
2 -3 -5 -13 -17 -24 -31 -28 -146 -27 -186 2 l-28 21 -25 -24 c-13 -12 -32
-23 -41 -23 -9 0 -30 -3 -46 -6 -20 -4 -35 -1 -46 10 -8 9 -19 16 -24 16 -4 0
-21 20 -36 45 -16 25 -33 45 -37 45 -5 0 -18 -13 -30 -30 -12 -16 -26 -29 -33
-27 -7 1 -11 -7 -10 -20 2 -18 -2 -23 -20 -23 -21 -1 -20 -2 11 -30 17 -16 32
-38 32 -48 0 -9 11 -34 25 -55 29 -42 25 -62 -24 -96 -31 -23 -134 -30 -146
-11 -3 6 -14 10 -24 10 -9 0 -38 13 -64 30 -67 42 -65 65 18 146 36 35 60 64
54 64 -25 0 -76 50 -83 80 -8 43 26 109 65 123 16 6 29 15 29 19 0 4 7 8 15 8
8 0 22 -17 31 -37 10 -23 18 -33 21 -24 3 7 1 16 -4 20 -5 3 -10 19 -11 35
l-2 29 54 -6 c38 -4 60 -1 73 8 15 12 18 11 21 0 2 -8 -2 -24 -8 -35z m577
-265 c30 -21 56 -95 50 -145 -2 -22 -6 -42 -8 -44 -2 -1 -17 -12 -33 -24 -38
-29 -89 -28 -142 3 -53 31 -64 50 -64 107 0 37 6 49 33 75 17 17 41 33 52 36
42 10 91 6 112 -8z m-318 -21 c34 -13 40 -21 46 -54 4 -21 3 -59 -1 -85 -9
-61 -47 -88 -112 -80 -92 11 -134 44 -147 116 -6 33 -4 39 27 62 78 60 119 69
187 41z m437 -208 c3 -8 0 -24 -6 -36 -16 -29 -35 -11 -26 24 7 28 23 34 32
12z"/>
<path d="M8207 3209 c-17 -10 -16 -12 8 -37 22 -22 28 -24 36 -12 7 13 9 12 9
-2 0 -10 5 -18 10 -18 14 0 13 23 -2 38 -7 7 -9 12 -4 12 4 0 1 7 -8 15 -17
18 -25 18 -49 4z"/>
<path d="M7347 3190 c-14 -11 -29 -20 -34 -20 -5 0 -9 -9 -10 -20 -2 -20 -1
-20 18 2 16 18 19 19 15 5 -3 -11 -2 -16 4 -12 6 3 10 13 10 22 0 9 8 22 18
29 9 7 14 14 11 14 -4 0 -18 -9 -32 -20z"/>
<path d="M6890 3130 c-13 -8 -12 -10 3 -10 9 0 17 5 17 10 0 12 -1 12 -20 0z"/>
<path d="M7160 3120 c0 -7 -3 -11 -6 -8 -6 7 -114 -92 -114 -104 0 -15 19 -8
41 15 12 12 19 16 15 10 -5 -9 0 -13 15 -13 17 0 20 4 16 22 -5 16 1 31 20 50
15 15 23 31 20 35 -4 3 -7 0 -7 -7z"/>
<path d="M2800 3104 c0 -8 5 -12 10 -9 6 4 8 11 5 16 -9 14 -15 11 -15 -7z"/>
<path d="M6960 3100 c-8 -5 -11 -12 -7 -16 4 -4 15 0 24 9 18 18 8 23 -17 7z"/>
<path d="M8240 3099 c0 -5 9 -9 20 -9 11 0 20 2 20 4 0 2 -9 6 -20 9 -11 3
-20 1 -20 -4z"/>
<path d="M6610 3079 c0 -5 5 -7 10 -4 6 3 10 8 10 11 0 2 -4 4 -10 4 -5 0 -10
-5 -10 -11z"/>
<path d="M7140 3070 c-12 -7 -12 -12 -2 -22 9 -9 12 -9 12 4 0 9 6 19 13 21 6
3 8 6 2 6 -5 0 -17 -4 -25 -9z"/>
<path d="M7360 3070 c0 -5 5 -10 10 -10 6 0 10 5 10 10 0 6 -4 10 -10 10 -5 0
-10 -4 -10 -10z"/>
<path d="M7390 3066 c0 -9 5 -16 10 -16 6 0 10 4 10 9 0 6 -4 13 -10 16 -5 3
-10 -1 -10 -9z"/>
<path d="M2930 3063 c39 -14 52 -64 23 -95 -18 -20 -4 -25 15 -6 30 30 4 109
-36 107 -14 0 -14 -2 -2 -6z"/>
<path d="M7190 3051 c-8 -6 -18 -7 -22 -5 -4 3 -8 -6 -8 -20 0 -14 5 -28 10
-31 6 -3 10 2 10 11 0 10 7 26 17 36 18 20 16 23 -7 9z"/>
<path d="M6695 3029 c-11 -16 -1 -19 13 -3 7 8 8 14 3 14 -5 0 -13 -5 -16 -11z"/>
<path d="M7015 2960 c-3 -5 -1 -10 4 -10 6 0 11 5 11 10 0 6 -2 10 -4 10 -3 0
-8 -4 -11 -10z"/>
<path d="M6960 2915 c-19 -14 -31 -25 -27 -25 3 0 23 11 43 25 20 14 33 25 27
25 -5 0 -24 -11 -43 -25z"/>
<path d="M7067 2933 c-10 -9 -8 -33 2 -33 5 0 11 9 14 20 5 20 -3 26 -16 13z"/>
<path d="M10470 2920 c-12 -7 -12 -12 -2 -22 14 -14 16 -32 3 -23 -5 3 -12 -3
-15 -13 -3 -10 -26 -34 -50 -54 -24 -20 -46 -46 -49 -58 -4 -14 25 9 77 62 48
47 78 84 70 86 -7 2 -10 10 -7 18 6 16 -5 18 -27 4z"/>
<path d="M7020 2883 c-8 -3 -41 -21 -72 -41 -55 -33 -70 -54 -48 -67 6 -3 10
3 10 15 0 19 2 20 21 7 16 -11 29 -13 55 -5 19 5 38 7 43 3 5 -3 7 4 4 15 -4
16 -8 18 -19 9 -11 -9 -14 -7 -14 10 0 17 6 21 35 21 28 0 35 4 35 20 0 20
-18 25 -50 13z"/>
<path d="M7125 2840 c-3 -6 1 -7 9 -4 18 7 21 14 7 14 -6 0 -13 -4 -16 -10z"/>
<path d="M6800 2750 c-13 -8 -13 -10 2 -10 9 0 20 5 23 10 8 13 -5 13 -25 0z"/>
<path d="M6810 2689 c0 -5 5 -7 10 -4 6 3 10 8 10 11 0 2 -4 4 -10 4 -5 0 -10
-5 -10 -11z"/>
<path d="M6866 2687 c3 -10 9 -15 12 -12 3 3 0 11 -7 18 -10 9 -11 8 -5 -6z"/>
<path d="M2750 2662 c0 -8 -5 -10 -12 -6 -7 4 -2 -5 12 -18 31 -31 36 -28 16
9 -8 15 -15 22 -16 15z"/>
<path d="M6640 2657 c0 -7 9 -18 20 -25 16 -10 20 -10 20 1 0 14 -20 37 -32
37 -4 0 -8 -6 -8 -13z"/>
<path d="M6695 2600 c-3 -5 -1 -10 4 -10 15 0 14 -27 -1 -33 -10 -4 -10 -6 0
-6 6 -1 12 -10 12 -22 0 -11 4 -17 10 -14 18 11 41 -17 38 -44 -3 -23 0 -26
23 -23 14 2 37 -6 52 -18 15 -12 34 -20 42 -17 7 3 18 0 24 -7 9 -10 6 -12
-13 -9 -35 7 -40 -12 -10 -36 25 -20 26 -22 10 -39 -20 -23 -20 -28 0 -36 17
-7 94 44 132 88 27 32 28 39 2 31 -12 -4 -20 -2 -20 5 0 7 -8 9 -20 5 -13 -4
-20 -2 -20 7 0 10 -2 10 -9 -1 -10 -16 -52 -6 -48 12 1 7 -8 11 -25 9 -14 -2
-29 2 -33 7 -3 6 -1 11 4 11 6 0 11 5 11 10 0 6 -7 10 -15 10 -8 0 -12 6 -9
15 4 9 -3 16 -20 21 -19 4 -26 13 -26 31 0 18 4 24 15 19 8 -3 15 -1 15 4 0 6
-12 10 -27 10 -16 1 -39 7 -53 15 -30 17 -37 18 -45 5z m210 -230 c3 -5 1 -10
-4 -10 -6 0 -11 5 -11 10 0 6 2 10 4 10 3 0 8 -4 11 -10z"/>
<path d="M6090 2450 c0 -5 5 -10 10 -10 6 0 10 5 10 10 0 6 -4 10 -10 10 -5 0
-10 -4 -10 -10z"/>
<path d="M2810 2415 c1 -5 7 -21 14 -34 8 -14 12 -31 9 -38 -3 -7 2 -13 11
-13 9 0 16 -7 16 -15 0 -8 7 -15 15 -15 27 0 16 38 -25 82 -22 24 -40 39 -40
33z"/>
<path d="M7480 2399 c0 -5 5 -7 10 -4 6 3 10 8 10 11 0 2 -4 4 -10 4 -5 0 -10
-5 -10 -11z"/>
<path d="M7725 2311 c-36 -19 -47 -33 -35 -45 5 -5 2 -18 -7 -32 -8 -13 -11
-24 -5 -24 6 0 12 5 14 12 3 7 7 5 11 -6 4 -10 3 -15 -3 -11 -6 3 -10 2 -10
-3 0 -5 -9 -12 -20 -15 -11 -3 -20 -10 -20 -16 0 -6 7 -8 15 -5 12 5 15 -2 15
-27 0 -23 -3 -30 -9 -21 -6 10 -10 8 -14 -10 -4 -14 -17 -30 -29 -36 -20 -9
-15 -11 32 -11 69 -1 97 13 57 28 -15 6 -27 18 -27 28 0 16 2 16 11 3 8 -12
10 -9 6 12 -2 15 0 25 4 22 5 -3 9 4 9 15 0 23 15 28 24 9 3 -7 4 -1 3 14 -3
16 1 29 10 32 9 4 12 15 8 37 -5 25 -3 30 10 26 20 -8 19 6 -2 25 -16 13 -21
13 -48 -1z"/>
<path d="M6020 2303 c-14 -9 -27 -19 -30 -22 -3 -3 -31 -18 -62 -33 -32 -15
-58 -32 -58 -38 0 -5 -5 -10 -11 -10 -6 0 -31 -15 -57 -32 -26 -18 -51 -33
-57 -34 -14 -1 -73 -30 -120 -59 -22 -13 -47 -24 -56 -25 -9 0 -31 -12 -50
-27 -34 -28 -43 -52 -25 -65 10 -6 87 19 96 33 3 3 30 19 60 34 30 15 62 35
70 45 26 30 184 147 210 155 23 7 51 26 114 77 27 23 8 23 -24 1z"/>
<path d="M7427 2298 c-8 -30 0 -36 18 -12 18 24 19 34 1 34 -7 0 -16 -10 -19
-22z"/>
<path d="M7244 2284 c5 -12 2 -15 -10 -10 -22 8 -55 -16 -45 -33 7 -11 15 -8
40 10 31 22 41 49 20 49 -6 0 -8 -7 -5 -16z"/>
<path d="M6806 2255 c-38 -34 -39 -36 -22 -53 16 -16 17 -16 10 2 -5 14 -4 17
5 12 15 -9 64 21 56 34 -4 6 1 10 11 10 13 0 14 3 4 15 -17 21 -20 20 -64 -20z
m14 -25 c0 -5 -2 -10 -4 -10 -3 0 -8 5 -11 10 -3 6 -1 10 4 10 6 0 11 -4 11
-10z"/>
<path d="M2918 2253 c7 -3 16 -2 19 1 4 3 -2 6 -13 5 -11 0 -14 -3 -6 -6z"/>
<path d="M7390 2234 c0 -7 27 -34 34 -34 3 0 6 9 6 20 0 13 -7 20 -20 20 -11
0 -20 -3 -20 -6z"/>
<path d="M2290 2216 c0 -2 8 -10 18 -17 15 -13 16 -12 3 4 -13 16 -21 21 -21
13z"/>
<path d="M7147 2199 c-17 -19 -17 -21 -1 -17 10 1 16 7 15 12 -2 5 3 13 11 17
7 5 8 9 3 9 -6 0 -19 -9 -28 -21z"/>
<path d="M6747 2204 c-3 -3 -3 -13 0 -22 4 -15 3 -15 -6 -2 -9 13 -12 13 -26
-1 -15 -15 -14 -16 7 -15 30 2 48 14 48 32 0 14 -12 19 -23 8z"/>
<path d="M7342 2200 c3 -8 1 -25 -3 -37 -5 -13 -5 -31 -2 -40 6 -15 8 -14 14
7 l7 25 1 -25 c1 -19 4 -21 10 -11 9 15 -4 68 -22 86 -6 7 -8 5 -5 -5z"/>
<path d="M7927 2161 c-4 -17 -3 -21 5 -13 5 5 8 16 6 23 -3 8 -7 3 -11 -10z"/>
<path d="M6874 2156 c-3 -9 -15 -16 -26 -16 -11 0 -18 -5 -16 -11 4 -12 6 -12
48 4 30 11 35 27 12 35 -7 2 -15 -3 -18 -12z"/>
<path d="M7080 2150 c0 -5 5 -10 10 -10 6 0 10 5 10 10 0 6 -4 10 -10 10 -5 0
-10 -4 -10 -10z"/>
<path d="M6758 2079 c-16 -12 -25 -26 -21 -34 8 -22 22 -18 16 5 -6 21 13 28
20 8 2 -7 6 -1 9 15 3 15 5 27 4 27 0 0 -13 -10 -28 -21z"/>
<path d="M7933 2083 c-18 -7 -16 -23 2 -23 8 0 15 7 15 15 0 8 -1 15 -2 14 -2
0 -9 -3 -15 -6z"/>
<path d="M6690 2043 c9 -19 8 -23 -5 -23 -8 0 -15 -5 -15 -11 0 -5 -4 -7 -10
-4 -5 3 -10 1 -10 -4 0 -16 26 -13 40 4 8 10 16 12 19 6 4 -6 12 -6 21 -1 12
7 11 10 -5 16 -11 4 -26 15 -33 23 -11 14 -11 13 -2 -6z"/>
<path d="M8535 2000 c-3 -5 -1 -10 4 -10 6 0 11 5 11 10 0 6 -2 10 -4 10 -3 0
-8 -4 -11 -10z"/>
<path d="M6600 1979 c0 -5 -8 -5 -17 -2 -15 6 -16 4 -6 -8 17 -21 5 -59 -19
-59 -18 0 -19 -1 -2 -29 10 -16 28 -34 41 -40 12 -6 23 -18 23 -26 0 -9 4 -14
10 -10 5 3 7 12 3 20 -3 8 0 15 6 15 7 0 14 -7 17 -15 11 -27 24 -16 24 19 0
29 -3 33 -20 29 -15 -4 -20 0 -20 16 0 11 -4 21 -9 21 -5 0 -7 9 -4 20 3 11 9
17 14 14 5 -3 9 4 9 14 0 13 -9 21 -25 24 -14 3 -25 1 -25 -3z"/>
<path d="M8500 1979 c0 -5 5 -7 10 -4 6 3 10 8 10 11 0 2 -4 4 -10 4 -5 0 -10
-5 -10 -11z"/>
<path d="M8488 1953 c7 -3 16 -2 19 1 4 3 -2 6 -13 5 -11 0 -14 -3 -6 -6z"/>
<path d="M10411 1813 c0 -4 4 -17 9 -28 8 -19 9 -19 9 2 1 12 -3 25 -9 28 -5
3 -10 3 -9 -2z"/>
<path d="M5645 1780 c-3 -6 1 -7 9 -4 18 7 21 14 7 14 -6 0 -13 -4 -16 -10z"/>
<path d="M5750 1776 c0 -9 0 -19 -1 -23 0 -4 4 -9 10 -11 14 -5 14 35 1 43 -5
3 -10 -1 -10 -9z"/>
<path d="M5715 1750 c-3 -5 -17 -10 -31 -10 -19 0 -24 -5 -24 -25 0 -25 14
-34 24 -16 3 5 21 5 41 1 35 -8 52 1 40 20 -4 6 -16 8 -27 4 -18 -5 -20 -3
-15 15 5 22 2 27 -8 11z"/>
<path d="M2762 1684 c1 -9 9 -19 16 -22 9 -3 13 2 10 14 -1 9 -9 19 -16 22 -9
3 -13 -2 -10 -14z"/>
<path d="M7150 1632 c-17 -14 -20 -22 -12 -42 4 -14 8 -36 8 -50 -1 -22 -7
-25 -55 -32 -30 -5 -60 -13 -68 -19 -14 -13 -14 -90 1 -101 6 -4 5 -12 -1 -20
-6 -7 -12 -16 -12 -21 -1 -18 -19 -39 -37 -42 -10 -2 -21 -4 -24 -6 -3 -1 -9
-3 -15 -3 -5 -1 -19 -7 -30 -13 -17 -9 -42 -10 -77 -4 -4 0 -5 8 -2 16 6 16
-17 45 -36 45 -7 0 -10 7 -6 15 8 23 -37 29 -102 15 -31 -7 -72 -13 -90 -15
-28 -1 -47 -16 -108 -79 -41 -43 -74 -84 -74 -91 0 -7 -12 -22 -27 -33 -24
-17 -28 -27 -27 -64 0 -24 7 -56 14 -73 12 -28 16 -41 19 -80 2 -22 31 -18 31
4 0 11 5 23 10 26 6 4 8 11 5 16 -4 5 3 9 14 9 15 0 21 -6 21 -21 0 -11 5 -17
10 -14 6 4 8 10 6 14 -3 4 8 15 25 25 16 9 27 21 24 26 -9 15 15 22 30 10 19
-16 19 -23 -5 -50 -17 -20 -18 -24 -4 -37 9 -9 11 -20 6 -27 -14 -19 -33 -68
-23 -62 5 3 9 -6 9 -19 0 -22 -3 -24 -16 -13 -13 11 -14 10 -10 -2 2 -8 -5
-24 -16 -36 -16 -16 -26 -19 -43 -13 -13 5 -23 5 -23 1 0 -4 -17 -25 -37 -47
-41 -44 -76 -98 -48 -75 19 16 19 1 0 -23 -7 -11 -12 -24 -9 -31 3 -7 -2 -25
-10 -41 -10 -19 -12 -33 -6 -39 15 -15 12 -26 -5 -20 -10 4 -15 0 -15 -12 0
-10 -5 -32 -12 -50 -9 -27 -8 -38 7 -70 15 -31 16 -43 6 -69 -6 -17 -11 -43
-11 -57 0 -14 -9 -46 -21 -72 -11 -25 -18 -50 -14 -55 3 -5 -6 -19 -21 -30
-21 -17 -25 -25 -19 -51 l7 -30 2035 0 2036 0 -68 72 c-37 40 -87 91 -110 113
-47 45 -145 162 -145 174 0 4 -16 15 -36 24 -25 12 -34 22 -30 33 3 8 2 13 -3
9 -10 -6 -61 50 -61 67 0 6 -3 9 -6 5 -3 -3 -25 16 -49 43 -28 32 -47 45 -55
40 -13 -8 -41 10 -34 21 2 4 -8 10 -23 14 -25 6 -41 18 -104 76 -15 15 -31 24
-34 21 -3 -3 -5 0 -5 7 0 7 -4 9 -10 6 -5 -3 -10 1 -10 9 0 8 -9 18 -21 21
-13 5 -18 12 -14 22 4 13 3 14 -9 4 -12 -10 -17 -9 -28 8 -7 12 -21 21 -31 21
-9 0 -33 16 -52 36 -19 20 -35 33 -35 29 0 -4 -12 0 -26 10 -14 9 -29 14 -32
10 -4 -3 0 -10 8 -15 22 -14 5 -23 -19 -10 -20 10 -29 30 -13 30 4 0 13 4 20
9 11 6 7 15 -15 38 -16 17 -38 35 -49 41 -18 11 -17 11 6 13 18 0 12 4 -20 13
-47 13 -223 86 -275 114 -33 18 -56 43 -49 54 3 5 -5 8 -18 8 -13 0 -28 4 -34
9 -10 10 -260 90 -383 123 -41 10 -88 25 -105 32 -34 14 -65 6 -100 -26 -11
-10 -22 -15 -25 -10 -9 11 -75 9 -83 -3 -5 -6 -8 -2 -8 8 0 10 -8 17 -20 17
-30 0 -92 28 -86 39 3 5 -2 8 -12 7 -9 0 -16 4 -15 10 1 7 -3 11 -10 11 -39
-1 -47 4 -44 26 2 12 2 16 0 10 -7 -19 -41 -15 -63 7 -20 20 -36 27 -26 12 3
-5 -24 -5 -59 -1 -43 6 -105 26 -197 67 -117 52 -207 82 -257 86 -9 1 -32 7
-51 13 -68 22 -98 23 -120 5z m2140 -802 c0 -5 5 -10 11 -10 5 0 27 -11 47
-25 36 -24 36 -25 10 -25 -14 0 -28 7 -32 15 -3 8 -15 15 -26 15 -11 0 -20 2
-20 4 0 2 -3 11 -6 20 -3 9 -1 16 5 16 6 0 11 -4 11 -10z m107 -76 c-3 -3 -12
-4 -19 -1 -8 3 -5 6 6 6 11 1 17 -2 13 -5z"/>
<path d="M3068 1593 c7 -3 16 -2 19 1 4 3 -2 6 -13 5 -11 0 -14 -3 -6 -6z"/>
<path d="M6520 1370 c-11 -7 -7 -10 18 -10 20 0 31 4 27 10 -8 13 -26 13 -45
0z"/>
<path d="M6476 1343 c-6 -14 -5 -15 5 -6 7 7 10 15 7 18 -3 3 -9 -2 -12 -12z"/>
<path d="M3382 1334 c-13 -9 -37 -17 -55 -18 -55 -5 -57 -6 -57 -17 0 -7 10
-9 25 -5 18 5 27 2 31 -9 6 -14 9 -13 21 5 8 11 25 20 39 20 14 0 24 6 24 14
0 8 6 17 13 19 8 4 7 6 -3 6 -9 1 -26 -6 -38 -15z"/>
<path d="M6415 1310 c-3 -6 1 -7 9 -4 18 7 21 14 7 14 -6 0 -13 -4 -16 -10z"/>
<path d="M3166 1167 c3 -10 9 -15 12 -12 3 3 0 11 -7 18 -10 9 -11 8 -5 -6z"/>
<path d="M3652 1035 c3 -24 0 -31 -10 -28 -7 3 -11 8 -8 11 3 2 1 13 -5 24
-11 20 -11 20 -30 -1 -10 -11 -19 -25 -19 -31 0 -6 -7 -25 -16 -42 -21 -40 -3
-61 21 -25 9 14 22 24 29 21 8 -3 16 1 19 10 4 9 20 14 49 14 24 0 48 1 53 2
24 5 45 -1 45 -14 0 -9 8 -12 24 -9 44 9 89 -35 54 -51 -7 -3 -4 -4 8 -1 21 5
64 -26 64 -47 0 -17 27 9 33 32 3 11 1 20 -4 20 -5 0 -9 7 -9 15 0 8 5 15 10
15 6 0 10 -4 10 -10 0 -14 38 -12 42 2 4 10 10 10 31 1 24 -11 26 -10 29 15 3
24 8 27 53 32 28 3 65 2 83 -3 19 -5 37 -6 40 -3 11 12 -19 30 -51 32 -17 2
-86 10 -152 19 -177 25 -181 25 -294 30 l-103 3 4 -33z"/>
<path d="M4095 800 c-10 -11 -15 -20 -11 -20 14 0 46 21 46 30 0 16 -16 11
-35 -10z"/>
<path d="M4018 767 c-16 -6 -28 -14 -28 -19 0 -11 1 -11 46 12 41 20 28 25
-18 7z"/>
<path d="M3945 740 c-3 -5 -1 -10 4 -10 6 0 11 5 11 10 0 6 -2 10 -4 10 -3 0
-8 -4 -11 -10z"/>
<path d="M3898 721 c-26 -15 -37 -31 -20 -31 10 1 56 40 51 44 -2 1 -16 -4
-31 -13z"/>
<path d="M3835 680 c-3 -5 -1 -10 4 -10 6 0 11 5 11 10 0 6 -2 10 -4 10 -3 0
-8 -4 -11 -10z"/>
<path d="M3374 556 c-10 -8 -15 -18 -11 -22 4 -4 17 2 30 14 24 25 12 30 -19
8z"/>
<path d="M3330 509 c0 -11 -4 -18 -10 -14 -12 7 -50 -25 -50 -43 0 -7 -7 -15
-15 -18 -8 -4 -15 -12 -15 -19 0 -7 -7 -18 -15 -25 -9 -7 -13 -15 -11 -17 5
-5 92 79 129 123 16 19 16 22 2 27 -10 5 -15 0 -15 -14z"/>
<path d="M3015 500 c3 -5 8 -10 11 -10 2 0 4 5 4 10 0 6 -5 10 -11 10 -5 0 -7
-4 -4 -10z"/>
<path d="M3341 354 c0 -11 3 -14 6 -6 3 7 2 16 -1 19 -3 4 -6 -2 -5 -13z"/>
<path d="M3189 333 c-8 -9 -9 -14 -2 -10 6 4 14 1 16 -5 3 -7 6 -3 6 10 1 26
-2 27 -20 5z"/>
<path d="M3171 230 c-7 -40 -9 -107 -4 -123 3 -11 11 -16 19 -13 17 7 18 -8 2
-34 -12 -19 -5 -40 9 -26 11 11 13 114 3 139 -8 19 -9 18 -11 -13 -2 -25 -4
-18 -9 25 -4 33 -8 53 -9 45z"/>
<path d="M3216 31 c-3 -5 1 -11 9 -14 9 -4 12 -1 8 9 -6 16 -10 17 -17 5z"/>
</g>
</svg>
