<svg width="31" height="32" viewBox="0 0 31 32" fill="none" xmlns="http://www.w3.org/2000/svg">
<path d="M30.9993 16.0102C30.9993 19.9293 30.9993 23.8483 30.9993 27.7668C30.9993 28.7636 30.6751 29.6357 29.9822 30.3596C29.3985 30.9695 28.6864 31.337 27.8501 31.4558C27.6479 31.4847 27.4425 31.4976 27.2381 31.4976C19.4182 31.4997 11.5983 31.4986 3.77781 31.5002C2.89662 31.5002 2.09836 31.2589 1.40444 30.7116C0.6645 30.1279 0.207589 29.3665 0.0551075 28.434C0.0149807 28.189 0.00267512 27.9375 0.00267512 27.6887C0 19.8827 0.00160507 12.0762 0 4.26911C0 2.95776 0.523789 1.91339 1.58581 1.15045C2.22731 0.689259 2.95815 0.500931 3.74891 0.501466C9.63418 0.505746 15.5189 0.503606 21.4042 0.504141C23.4282 0.504141 25.4527 0.4913 27.4762 0.513771C28.5933 0.526077 29.4991 1.02418 30.1994 1.88664C30.7537 2.56987 31.0009 3.36277 31.0004 4.24021C30.9982 8.16355 30.9993 12.0869 30.9993 16.0102ZM29.5874 16.0033C29.5874 14.3404 29.5874 12.6775 29.5874 11.0147C29.5868 8.69215 29.5879 6.36907 29.5826 4.04654C29.5815 3.60193 29.4274 3.19745 29.1652 2.84166C28.6923 2.20017 28.0428 1.90269 27.2525 1.90269C23.0841 1.90269 18.9158 1.90269 14.7469 1.90269C11.0777 1.90269 7.40848 1.90269 3.73928 1.90269C3.03305 1.90269 2.43115 2.14666 1.96247 2.68062C1.57244 3.12469 1.40979 3.65062 1.41032 4.24182C1.41407 9.68515 1.41246 15.129 1.41246 20.5724C1.41246 23.0335 1.41139 25.494 1.41728 27.9552C1.41835 28.3949 1.57244 28.7946 1.83032 29.1477C2.30114 29.793 2.94959 30.0904 3.74035 30.0904C6.88362 30.0915 10.0264 30.0904 13.1696 30.0904C17.8596 30.0904 22.5497 30.0904 27.2402 30.0904C27.7517 30.0904 28.2311 29.9781 28.6479 29.6683C29.2819 29.1969 29.589 28.5645 29.5884 27.7727C29.5858 23.8494 29.5874 19.926 29.5874 16.0027V16.0033Z" fill="black"/>
<path d="M11.9004 11.5531C11.8635 11.5927 11.8335 11.6254 11.8025 11.6569C11.4087 12.0571 11.0133 12.4568 10.6206 12.8581C10.3504 13.1341 10.3033 13.4343 10.4853 13.7591C11.2637 15.1458 12.1299 16.4722 13.1775 17.6733C14.4428 19.1243 15.9115 20.3136 17.6706 21.1237C18.0205 21.2847 18.3132 21.2365 18.5823 20.9605C19.0301 20.5009 19.4774 20.0408 19.9327 19.5732C21.6095 20.6491 23.2804 21.7218 24.9539 22.7961C24.5061 23.8512 23.9015 24.7677 22.885 25.3482C22.3178 25.6719 21.7031 25.8335 21.0525 25.8677C19.907 25.9271 18.829 25.643 17.7803 25.2171C16.3117 24.6206 14.9886 23.7774 13.7425 22.8068C12.6462 21.9529 11.6345 21.0086 10.6993 19.9803C9.62814 18.8027 8.66778 17.5438 7.84972 16.1784C7.12637 14.9709 6.51644 13.7114 6.16012 12.3418C5.94557 11.5178 5.82519 10.6816 5.91454 9.82984C6.06274 8.42005 6.74811 7.35374 7.99204 6.65821C8.12045 6.58652 8.24939 6.51536 8.381 6.45116C8.50887 6.3891 8.64103 6.33613 8.78548 6.27246C9.82236 8.03055 10.8582 9.78596 11.9009 11.5531H11.9004Z" fill="black"/>
</svg>
